<mxfile host="65bd71144e">
    <diagram id="PiftEYAGnI42xFDai2pH" name="Page-1">
        <mxGraphModel dx="746" dy="308" grid="1" gridSize="10" guides="1" tooltips="1" connect="1" arrows="1" fold="1" page="1" pageScale="1" pageWidth="850" pageHeight="1100" math="0" shadow="0">
            <root>
                <mxCell id="0"/>
                <mxCell id="1" parent="0"/>
                <mxCell id="2" value="" style="shape=image;verticalLabelPosition=bottom;labelBackgroundColor=default;verticalAlign=top;aspect=fixed;imageAspect=0;image=data:image/jpeg,/9j/4AAQSkZJRgABAQAAAQABAAD/2wCEAAYGBgYHBgcICAcKCwoLCg8ODAwODxYQERAREBYiFRkVFRkVIh4kHhweJB42KiYmKjY+NDI0PkxERExfWl98fKcBBgYGBgcGBwgIBwoLCgsKDw4MDA4PFhAREBEQFiIVGRUVGRUiHiQeHB4kHjYqJiYqNj40MjQ+TERETF9aX3x8p//CABEIAkQGQAMBIgACEQEDEQH/xAAvAAADAQEBAQAAAAAAAAAAAAAAAQIDBAUGAQEBAQEAAAAAAAAAAAAAAAAAAQID/9oADAMBAAIQAxAAAAL1QIAAAAAAAACLgRZWZlFm5WJqYdRly9/HXRU6ZSUSyqzrQZCGibiyKw2KjSCmAhhxaZKzr0nll7EsDa8Q2M9AipNAAAEmixMFjgdWnF2ged3jmuI7Xz9B5/fw9wRUltAxMmosYAAibihghxUFtAwQReZoAABF52MAEBN56AJhnpmWAAA4rM2EDSZF52NoAETUWAAIQrzsE5HLk0aBiBxUGgIYBImWIGgM9M9BoAlyOoZQgedwW0DEyKii0AS0FTQCAi4LAAERcWDQGemZo0xgAAAAAAAIEOLgpUqwrDeyFUaj6OfozTk6uM6tM9JQFCi5q2iGgIvPSuHs8/0SpyDS/D9osCOOd6qDbOOWupmWHVdcXdNQ89MjUAABJg2M4a60cfbFnH28fYLyvWzMeqaODuz0FFyWADTIuLGACaIuLAAIuCwBiAi4LGgAMtM9AaBMDPSLEwCLgsAAQRUGomJgRcWMQNARcWAIU1INMYgU3Bo5YMBRcJoAo0EgJQCtARpnaACmdwUDBoCKRTQABFxRQATUFNMBoUtFNMEIm40EMDO4NABjQJgmAAAAJMFNSWQJRDpw0LSUPl2Ku83LZBFwTWpBFkId5XXJXSEWIm2FEkNIqySKIYrzumS4cVFaCIYAgKoFDAIubEAEXI2MSYKNJGUElBDLJKCVaM7KIKZE6SBTJVhMawMoIWiMqWhBaJVhnasgsIjaALDM0DKdZAsILDLRWQtAhaIzoshaIzWkkO2ZmgZTtNiNCWCwzWsoFiwtAydNILCS0ZWWQtAznWRFhmaBmtEJaC5mgY2WQWzNawJ2ELQMimSWzMtGdOiDREFIsAoEAAmAACAAAIuCmmABIAxgk0TSoQwU1JaaBNCqNAACLgtpiYCmpLABNE6Z2MAM9My2gYAlUlgAARcWAMU1I2mCYEXBYAAEXFjTQAE1NAAEXBYAABFwWAABncWCYCAjXLQYgIvM0AAAUXJTAQwi89BgCTQqmgAFF5lUmIAIuCwYhgpqDQAACKTBgABFxYABFwWAABDTKAENEXFg0DzuDQAARLTGAOazHSY0BIqKQFAAAAAAACAAIuCnLGJkgFCYk0KosAQJyWhiGiNM9ABDipNBMABTSKABNE3FjEDzuDQTAASaKYAII0z0AAJpA1QhoIuDRAMQRcWAAAibiwADPTMtoGJhFSWACAz0z0AAAROmdjQBF5mgACAmpLAAAz0z0GgBORXnRSEEVBbTAAIqDQQUSDlymjkViQqiiiQpIC86KEBLk0JCkkTcUlJC0kgqKGIHFQakgxIV50UJFQ4NHIUSE3nqABYAgAAEANAAIIuAbZJSJG6RSiVZWdFElhE6SBTiFZWVqkSx6SFpIFkslhmWqS0I8vv4vRrKyyCyInWKZZEFhC0kCmQWGVqySwhWiXTIWiInWQKCCwytWQWEFhlRZCtmc7ZgaBm7CJ0kCwzWgY2WQWEFMytWStAznaBFhC0RKtAUEFhlc6ElIStEMsgoIjbMKAFYQtIGUElBCtI1aVDDOlZJQSUkm5tZKQlUpQxZKDNlElBKpCbZBYROkFDCRhnc2JWEzcjVBLYZ656AAWCAAAATBDQACi4KaAOazUxqzU5+dfQRynVWfMdpk4mcizo04Wvbz680VWWlk7acivpAsxzjrAJVTVjyji9Dk6yNM9AACLg0AAAJaLAAAz0iwBimpKcsaAJqCwAAIqLAAACNMtAAHncGgAACi4NEwQwyuLBpktAqmhgCi8zVMBNEpyaOWNAZ6Z6DTAAIuLAAWeuRc0goAi8zQAABJymiBRORXloMQCcjqaAAM7hNHFKwRFxaCaUlyW0wAFFQWDEmiNMtCkARUGgAAibixgFgCGCAAAEwQAouBtUYbMOPTYshbCrl6kLn6KIdkTh0RZpFEqGjE0ux5aEsqosWfQ1YiHLmtOboIm5CdMrqiXDzqTUkKJByI1JCiQV5aFEoqRFOGUSFQSakBalBeTNFKLIA0xo0IRpmSbPMNDMLgg3Mw0M0F42WQFqAq8aNDMLgk2IC1KAkrUzI0MwNMbNDMNFDC8maEBeZJqZhoZsuCbNTMl0MxKUlaqFGihBrhdaGZFwSa1kzRQFzKNSA0MwLyqtFAVJJq8yLM2OUVoQo0mZK0xZqZhSllkBpEo0pNRoNAATQAAAAAJoM9MxOnZBoGRTJNCXNaKs6LILCJ1gDQjNaIzouoNEZzrA23ElhCtWBRLJQZaTdS24mbgooJdBBUlDBDDPSLAASqQpMQwUaZljBKkZ0qEMBMIuNBDBRpBQwBgs9ILYAmjO40BNAmgqaAAWeuZYAAEphSYIaM9ctQAGmibiwACLzLBiYgi4LAAAhpoxpRNGekWMAIuEppqACmpTQBQAi4sTAU3BQ0AIlzaACkXmW0wAIqaBoCLzTRpqAGgmAAIYgAABMFnpmU0xgENOqQQJom5oABTUmgAhojTPQABRcFNMGmSAUwBNEaZ6AAKLg0AGAKaksAACLz0AAJqRtMABRcGgAICKiwAAAjTPQAAz0zNAAAFNSWAAgz1y1AAJaC4oABRpmWAABIgsTBNGeuWgxMEBOmWgwAzuCwAACKksAEBFRY2gE0RpnoAARcFMAAEmksBQETcUMQPO4S2mqAM7iwADPTM0AAAi4oaYLPTNNGmoAWAAMAATBAACDPTOqebSyAbgNCCLUqneVLTzZUpGpAaKANMqLIUXBNaPMNDNlKUmxBLZAGmVVZmRpmSbEBbgKlI1ICiUGmNlkBcqS6zDQzC4JNSAshBeVFkBZAFwyyEaZVBsZhooCpJNSAtQC1xssgLlA7zZZDHm5TUgWiENwzRSFEoLy0qiVFygLzookKgRoJFEg86lNCRaSCai7KJJWgSbihiYRc1QnAAS06oCBNE0qENCm4KGCGGdKyShYjWEboWVaM7VCVhm2FMAALAAAYIaAAATQZ6RQxgBEtOmJwS5HedgwJVRWgEJNE6Y7ByaaFTUjEwABNFtA0BN56CAFGmRq0DchUOS3LGgIvPQYpLnlo6HMGomEXkaIRYgikxgAmhXnYxMM9MjUENAEVJZLGCI1x0GxDmpCpoYIM9MywAAM6mhgCAJvLUBAJyOpoYgIvM0EFIBTUlgACJqLBphNSKpoAAmoS2moAS1SMBUqlFU0oAKahLAUTRNxYACliUAoiQpMBoiptBgoAWAAAAAAAAJoM7iqaYARIFNpwlUk3FFiZM1FaoISaJuKMSsjW6k8/ria7AISaKaYc3TyC7ufU5rSOnh7fOrt24u2EDCakoEU0GWudhxdsHM6svm6uUfXNHBrnNdOzITAlzQwATRGmegmA8tMzQAACZqSwATDPTPQYmIcjqaAQPLSDRMENGdTYDBTSMtM9RADlobTBoHlpFWBAAE1BYAwDO40AAJqQBiGCi4S3NKwCLi0AFJcI6mgAVRSssCUTkVzSCAlxZQgIrM1Ja0kidc9AAAAsTAAAAAAAQAs9IobEkoIZRJRLKtWQ3QihYjWEZQsFhlasmhxM6RRGoQURBU0yyJKDO1pUzoREbZ1OjIksJm5CdAltmVqySggtEN0ZumRGsA6ZmaBk3RBoGa0DGyiSwidYGtAzNAyWsiLZmaBhbszNAzNEQ6ozNAznWQWgZrVGFuzM0DJbSY2XWZoohaSJ0yDRERtALQILZlOs2BZLBoGNO7MzQlzWsWS6ZmaBGe8ku3GZZWVOiFoGa1gRoGb0UZOnUlkROsklszNEZ0rJdCxOsDKCRhGkWgAoAUAAAxAwAQAALPTOrBwJhNTQwAmpFc1QBEzU1QyBMI0z0oYQs9IG0xJgppFNMACdM7GALPTM0AAAIuShgmBnpnoAIE0KpoAAz0zNAAAIqaGACaIuLGJhnpmaAAMJmpLABOSdM9AQBLRVQjRJhJJqIGCIvPQAASCbz0BMFnpBTQMQOLgsAABS0WgGIFeegABncFNMAQ4qU0SFYgm89EAFJqUoBQAiotGJqRWZo0DQiaTRiakuTQQNORaRYACAKAAAAAAAAE0KNM6toGIhVNUwIJqaKiwQQpqasCAETpndMCCKkppiTBTUlMAAJvPQGmLPXMpiGCHLk0EwDA0vHUaAE0KooYgedwaCBiCazsoljQibzsYgrOoNSWNyhy5NBIqREa4aFkhUOS3LGICKg1cI0EhXlRakGkg0ytKIFvNwmghWIHLk0EDEgJY2gaEF46WUSS1DlLEFKQaSNCQogFplRopC5lGpAWpQXlRbzY5SNSAtSh1myyAuUFuAuHJpUtWIAAoAAAAAAABABFRTKzGUkTLJLCFpJFNkqxc1coLSFi42MrWhBZELSKCyILCJ1kS0ZmWGVl1BoRnG+QyoGUzNXmWXzG3Hviab5WU6RI2QyyCwiNeU6BsksMqKEUEqwyudCCgUa5lFBJYRNyUUiSkY6RYFMibzLbYlSFNwPGrLKkjSLEUhKkRU6Eq0TnrkmgMkGszpFlDJUKiGrRFCyUjO50sQ1KTWVmoECmzMi60VYxsmiOS8j0GApuCwATRFxYDFUtFDBTUFNMACKixgBnpmaNA0AAFgAAAAAAAIAUXFVzauFOe4Xw7V1GFRtwd/DXVpFxjph0Cxt1WO3HHQ3yHRr53o0J8sdM8wdmJJsYbmO2ehYAwREXmR2cHec5XGdmW2Zz93N1HD06SVjvkY7PU460ZfP0YG1NE3noAAuXpyNJmTZzBVxZQMQ0Z3DJtsjHTI3yeg2IzuaE5DUEcrjqM98dTGNcR9WG5hGiNJ0zOXtx6Bcm1ix1DYAJaI0z0BODDGkmm6peaaZ0Yb8ddFUo4989C7i0YmomiNM9LDn6MpYu4sjLRw9pZy7TVaUnGHFvkZ+nnsZLLQ3gxOk4O1bQibmkYCyKhgCi4SwaoERcWjEK87g0AAQABoAAAAAAAAhoUXnRpAkawGe+VFXmS65BZdZhOkpc9ZSaZMXWAM+jGy4CJVyXhsETqibSrUgiyEO+ebK6ubaWoIs2IFszI0hKzUhS6EAtMbLIRooB3jZZmFQSaqQqKkd5M2Mg1UAaY1ZoZkt5kpuQl0UBcqbNXmS6KEK87sp5kumTlNLyZoZi6ZVFmrglolCqLs0UEtqANMaS8qzNYJrYgizMXTMizczRoZkO8arQzI0UFO8bLIRrEo1ICyEF50WSQJooQcd9ILn6HUWyJnSaTpxBYZt2ZmiM1rNIsjM0RlRZC0RFTZSBQAQBqAAAADAEAIaFFxVgAgiNObeyyalJcltAGOxMXI2mNAKpY3LBOSwBp5lKEbBJQgzl61NyRPLoHWc+paaCKlNCaUEzPTGjQJKSBXhsMAUXmanLsVDg0aYwAcsm+fUshGmemRqElOeY6oQaKUXFQLXCTqMdQz0zNHNA1JUYbGpnYwki87LJYJ5hpjsCAM9MjQTBNBFyUMEOSb5ehKM8F6jFml8fQaGUm0PkTtItQMUu+boGs+de6coTc5hetCOXs4usslhFwWACaI0x1KExS0UAEuBtMBoy1z0GAAAAjUTAGIYIAAATBZ6Z1fJ14lUs4WuW9g0SuLg0ioJVc5vWHQDAQ0IQVhtIRcFVjqa8nZJPF34mmHVynVlsjz+hbk43kZdisyyrQ6AAzuSmAAjnhoq6kx3NDn68dhABz9GRj0xoRSslpjAE0HM7oqbReG+Qk9SMemTm3mjDpmzLXPQxy6AjYB53BdSx4bQJ1mGuOw0BlpnqJgHL1Qc3VMmdaMXH24mXZnqAApclgDy1RjtnqnPPTK559Miphz747mWPVnYbBLGPQjn6c9EwjqFzz6IRK6XPi74M89KTW5FedQauAolC0yo0IBkM0ICs3CaCFpJBcWMAEwQBo0DAAABoAABBnpFNUhTYZWqQAgTVMHKNAS1VCIAkNMbqiSKlwF4blkA0A89EWpAqHTERUCNHKKJBy5NCWPO0Z6zYJghhFKhFBE6QjdNYWgZFMksIWiIZZBYROsDLDM0DGdpBaBmtUZWtEgsXOdYQLawtAznWUCxYLDGyyCwgtGVOzN0ExrCBYsFozLhGW1zLRnasgsM52hE6FksM1YiLCFojKndQtFETrIKxYWiOfdWklCzNyUwBOQpMAQOaAAIqSxA87gpjAAAATRoAMAAAAAAQ0EVJaAACai6AIJqCmmMQEtU2iHNSRcaAIHjtI7AABCRYgAQVnoIGKLgpoASKkRqIKEE1noAAAhVFiaBxeZqAABIIsQCAz1x0LEBGmZYSWQxy5NABKpI0x0RhK1npmaNMABTUJoJLSAm8tAAHLQrigACKzNSWMQTLRqSwTRN52MSKiszRoAAQAwRSEK87GIEmihA5cDqKGIE5obljzvM0ABNCqLGCEotKEK4cmjTAAAQJo0aYNMAAAAAABRcVQEABFxdAKHFSU0xiAmlTmlAmibmgACaksABAIVU0Q5pGeuegACi4LBiAFNwaJoblkaZ2MASqTPSNAADPTI2chSlFJI0JQxIm89CnIVnUG0oASKUpNyEtqUka46VZBLedZ2bOCW1IOCbNlJLakJ0x0ssgluBDvK6bhwZ3mmjkWkITiihBRIK8rqlJFQKtSCSyAbyu21Ki1Mpd5sshDebNFKLzcltCtDIpWJUETrIFomaSK2yc3xF9k6kN861eWiW/M3XeseY9C+fkPROfc2aBtAwAAAAEwWekAWiHSrNq0ksiFpNJ0yCyIVq1LRRmaFZUWQWoibzqzQM3YZlhJaErDKyyI25S26EWzN2RExsgtBcjQMqNLMzQlzLDK1okFixG0DHBXm9/KdZaBWEKwyuMTqKZEbZlDZKqRE2jGKlUmV5NNgaqLiy2EqJsmbmylTlgrMjXk6xphM6RRQ4RQTnrzWbg5UqDOlVAyENEXNiGCi8DdzQJomoCzLUIuEsBWmia56NgBTUFZEF7cHcK4ZSfMVC6CgRx9GWpq5ZjRZNxZhPSETdnD12E56cZOXp88T1TZoJ0NMGmAAACGgz0zNADCTdOe+fetofHL2TFEaxBptx9YS8S7ijB5hvSwL2z0MkXVc+5FZa5G6aK5+mDPVURcaVOORHZDRTmgTgwHB1XjsABncWThVmqaI0ixiYs9MwWnOY9M7ggKBAmjAqDWiwzvM1AM8enE5u3m6TQQE1JyW9SdEwzvNNXMrT5+kU1FaNEPk6sTn6MOsYARedW04GgOHu81O3WaVJoiokrNZm7lmlSxiZyx05094qGIMCaF0c/QPO4LaB5XzmPVO4xASkHFvmnTUyulZs0xsFeVpcAstpLJFqRI2NUUidIsADn2YLLUgYFtOhpg0DEAAAApqDQgsbgFpmy1LHhqoksMt5RUNVoShNiqooKkgTmrchM6EMkrVIiNJKnXHQzLyjUgq6zZakiceibNiCW1KovK0ItS6KANMrKcIvMlNiBSpQySzVQS2oCN8NLNFBLebizYmJdcpzNNEJqpS2pCdM6qiSHnUWaY3lG2mbKkVakEtqAnTOrLUqW4Js0cEWZi6cHZFmrlS2pBOKspIlE4LcsaYLPRWBRLBYmK1syqxc1YiLDnrQIqmQ6FzZacnRYqi4LYAOSbmgYEuaGmCi4LGCmoKpMAATQAQBBsBTExgAAAAACmpKYgAJaqxMJSammDhKkSqQxghhFKqQwUaQUMhDCVU1QOAAz1z0oTISqRUqBMJm4NUAyaM7mqaZCGEaZ6AAKLg0AAAkEUNBNSZ646FiAi8jZDMrpCEFgCTROmWg0AsNcTfKqKAFLRYAAiNM9AGhRcFtMQAouE0AUAM7iwACLgsAACGmUgCakKmgAJc0MAU1BbTAAjTOxiAhhTTCagdSxoQqiiiAqUGhKKhyaNMAATQAQc3TwTfpCesMAABiYCBiAi4LAAAmoqmBBNRVNOBNCTRQAAibi6AIIuKsCAAlNVQEDAjTPQE0CaCpqgCFlrmaMBNAqixiYgCbixggi8zRoGJkpotAE1JlpGgqQPLTM1aBoCGBQAIRGuWgACz0zNAYJoQmMENCFplqNAKNMy2gABRSSmhWgIvOxiB51BqSxqQV50UQFSkmjgWyAKzookHFIoAStEWMkpmbbJMdSsOjkToptZBk3nidQBNRYwCUqG0wAENABB5Hp+Tnr7jT3yGgYAAAMEAGdwlByV1nP0RNS6bkhyKrcBZmLaSNFKLIA0yosgLzcmpmGhmjSZDQgNDMHpjZRBFqSneVFTjjHdnU1YiGmEUqAoJVhlpN2JWSxntyJ0lyqFoZrRCLDNaowt2ZlhEbZ1RTjM0DLPbA1dwCsMqd1maEZztnYyyXM0Rk6ZK0DM0RlpGhJYROsAWEq0ZqxEU1haIyVBRaJm5KGElImpoJrA0Fzp2GeisQJqhD5jeHiVvnoYPHZM1rscnWms873OTbdmK1g5emKDTPQwN0aCCNIoYkK89AAGgACAA4/P6OTHb6Fp9OIAMAAAABNBFwXy9Uiedme8sYAJoGmYVlZscfRWoEIAVRVMURcvnrpFlGxz7jmoNEuE71lBrrz7jWKOhcvUKsQz0w7Cp5tjUAACKmhgATkXcQbiZx1ozVYaGoAkBQApyZTkHeWg89MzRpgCMNJ0M8toNM98DWs9AADLXGthOEhkQ8zapoiBjzpG2bwOkii1z6D0wokx6DSKzHaRnvjqYU4LtyWY6gIFUUPn3CcthKEK0IdQyoACaLICpUmrhGkCJ1ihiBBQubqDC9JBWELSROgkqRaTQAABAAAYr48pc+30oHXgxAwAAAAEwUXBeegKNAi5oAAmpHLRnn0BhZoWIAAi4sy2z0OOunOrw6FHLtFGvD3YmvP1IOfpwHtnoRl0o59mzlt0TdI59CzUAACGIsQY07IitEaBVGmZL0CiUVKRqQCqUO8qqyCLzcWbEKXQzBuCzUhSuWh6YXZoZqXTMmzYzJdDNDedJbhLalGesWkTqLUqa3UOKJQVlZagLlSW4Ys9AqHCc/W6WFpJLpkFhm3SSWLC0kG2IaJqaBoFLCxATUFiYAEXFjQEioYAZ3BoAGYy2gGiGAAAef6HiTXOZmOn1Qn14gAxMAAAAAWekA6zGLQzbqoLIhaTUt0QWRmtESWELRVnaYFEROsUDzMOh6RnOsDKZDoMbLsgqpczRGdFmS1DGd4puyILRBQgtBcywytWIoJjXI0AAAScltAJojTPQAAzuDQABBLkNFhqUGYEWaI5TqiWmoCiAzuNAABEheegACi4NBMWNQa1nYTWBvFZmjxDUmCq5rNzKTQ5tjVpgARpnoAARUFtME4C4oZKFWVWamal1zSTV5C6zAVeQaKWRVBBoGRqzI1CaAAIAAAGgDyvR5s6563M672n15gANMAAAAAWekFYbZlleSeq+XpqgIJpCqKGLlOpEmi4Oo1S5jorINnxdosyTS4Yzi2NoriO2uDtLOTQtzyVp2cXVDfmemRplqAAo0zNAgzrm3NZywPRx05DquQm89KAIXN08B1TtBj1TZM3JYAJhk5yK3jQxvOzUUnLZRNW0wK1W8N5Mds9Rc/TJlWmdmwiUBEaZaWY1Ossc/ZBG+OwCBRcVoBHOOCt+fYedBfPrnUUyGIM9Jdm3JvMZ6tlCKYmRVMgtxkthcjUTF6hkahm7SooEMEwAAAAAAEoAAANEMQMQMQMQNAjaZzYyY3bTl7wOvNgAAMTAAAAmkZ2QXCLJ1gNTNLrMiOs2Vy75nRjSOfV6S5R0TWZUJptjpL5fVuFSUc17Qaed6GdnN3YbLwdWih53nZvLkWubVa40mqzF0zJTXJ4qXo4nl6yzR5o0MmPTINDMNMwNVAWQxxQNMEqDM0CC2YPYI5+uYg1DE2KyNQyWwYPYMTZGU7sxNkZGoYvUMTYMTYMTYMVsGS2DE2IxNhcnoiCwkoJKCRgmAADEwAE0DAAAAAAAAAAAAAAAAUAACAAQAAAIBoGIGJFEhRKKIRtL4Tl6OPrxrZqpe0T68xoGAAAxMAATQDBDBAAmCGCGCVBLYSUEq0SrRDoJKZDoJKCVYZlhLbEqCSglsEUEtghghgAxDBAAADQAAAAAAAAAAAAAAAAMTQAAAACAAAAABMAAEANAAAAAIYAgAAAAAQ0AAgAAAABgAAIYJgJgAAAAAAAAAAAAAKAQCBkhRCLUIszC0gYgYAAAmgTQOYh+Jz2dXb5/bnXU5cvaw682AAAMAYAACAYAmAIAAAAABADAAAABACYAAAAAAAAAAAAMAQAwAAAAAAAAAAAAAAAAAAAAAAEwAAAAYCAGgAAAAQAAAAAAACAGAIAYCAAAQAAAAAAgAAEAAAAAAMAABADAAAAAAAAAAABAACpBAACBUAAAAIADABAAAAAgEAV8yBz6gdHcGddFhl//8QAAv/aAAwDAQACAAMAAAAh8888w224n5pgJCEyGCuii6lS6++aS8SYDGjuGjCh9WBFGBusF24wWwwSwC88GAIOsse8Cqm6m8q0wKAK+aaiiS26WaaKOyyGSm+u8wggAuykfZJHoG4OOI0osy0m6YWe++y4/O7H2XaNJWBVuFK8NG0A+so+wq8Ei41WMYSgqGOmOgr0sTW6Pyeeuuu+myi2yqquayOB0YgAA6af5T3+0yEiGI0ggyoCKY6EeysG2y+eCeaigSFUiIK6eWK0a2aG+aCiqO2i6SCW6+q9yG/u+j3HrTbP/Tey66qy6q6O22KBkogA8uGiCqyOyyWWWaKWqieGeGDGOGyACW4q+8CNdWVpVtAU8S4AyQcuMu0Mah5eBueoGiKS6ym+q2iCesWOO2Ai+ueCGWWGye6d84AAEqSOKuK6KGGai6GeauSCSCOaKWqiOue660GcM+9s892s6Kgc++sGcmQsCACab2+2GyyGeOHimSCamiuuGj+ea22O2uWuCG6iA8A8eu2iCw2Y8gcKItNxGGgawgSE+uWKCOCKy2CMIisIqam2uqCay4qiSC6eKOyS3eaOSuyi+6zWOCC3q2jG6W6KG2+KKmSCeqigE8gQmi+CqZoYUKVI2BIweCwzfiWq2+aAo26+Ocu8ge9xu9aAw6QwGpsW8mwo25Z+JF+M2K2G+qXaWOOi++POGjiO6yaa6OeOimWACy+sS+u6G98ccCVa2xC9w+Uyu866S+qCyaG6+yaKWuX+m2+iCGOG+SqO+qCSoKGSOaWyKO6B+/5XXl/z/wCw/wD9UHUvuHeucMPt96wJb74pZa0HnJziwTL5STwLJW44So76IYYqY66b5ZbbL1l7+pRFKEVJUpazLzxpDeL1QLQZqb64qOYL759b48Y46LLYbvw44j66+rwoJr6pJb4KB7Lb76KK4o6qKqJYoD7ZAICB7z7bz4Fkp2kLHrXnrG2IEkT2LyAYha4li4Ar7xqJKq4qLKraqdbIY4uqobzYKgZIepz7oJK4ZAnG38HyijAywpARj3bqAJJaJoLKbKaY6LK6LubZbZ5uLhrrLrYrsoaZLZgZopIJYruZrkbs/uFuO3cPue/+v+48J77KaID74Z7pZDArDoYaaQKZrLp7LIZ7LzKaRqRx7zYrCJWXa13bnYFlL3UaXHwSRUn4rpr6rIYr9a4IZqp5rKeq5MKPaK/K6IIsQr7beI7LL77JZiypQqLpqxJK4bbS4LoYIPS6pIAy4raL+gIGLHGIVrEHoX0ImTjxhmFbBoopJaJj76L4ppKpbJvqLvq/sI2qLPNsOdpaZ74oJboLpiGEn601DFyDw4ywoTZ5w6C7Io4KoqIJr6rJrJr7b56qYqboK4oIo57KLayYrZZp4r1LJXKV31Gv2V2VWcU9/vMuLbq5f75L44J6pDpIY4LSqzZoSNL7qKpIYC7LJLCCoTrLR7kGoEV4Fb3H4kSYAYbC5CQpAgZpqraL65ZLYqJ5L4N65NItbrvq647Py44aoLwLb76pbSz7DbQh6jKYDaqJoqIJqqKYY4rYZ6I4xK4IopZ5IJiXaJLqJ6bJaKY5p7P5PYKLLYqJZ37cduMsvdM8tOcuPPO9MPfO46AL7776oyjF1EWUi3zTj6Da5Jo6RLYoL7bLa6p7h4YII9qb4LTBqa7LJ7Zo7La6Y4pYs/73aYta5E4HN+SdP8Oc99/IrK44K5ba5jA5777qqh6bzYAqpCYpz7aYqb4bYroqra7KqBZ4HJW37mCqCrhy4kQ6ypbzo0z7h7JQvJ6iJ48oJHK1/sl89ffM4rcYoK/q5cJbIzALr76qKyn12Z2VyniBiL74aRLYULED4nbIrbporr7Y57o2b8Y537aE5eOZXbZVIoe9kO4UWtXunnU3GWGOMd8U9nfsOeFOftcdyjgZ74LqLwhqUp6K5qpZaLr5qLKYTp4ZZsoq7QAYGoDgLixribSxLjB4ToihbywrD7ZrL/7LLJMKao5NLOfK86oo7rb64paor4a5AAQrDD75JSj5EZZYoK7ZqZraKZZorbpr5rI56tsqjKTyqgz4UJg2aQRbwoJ4YQho46pYIqo7ZLtZIL7FKqdIMI5eJY6LZ56ofJZ6RD0ZTzY4ZRSD1OHKLw6Yy4Io775YypqbLapLJIr4K+pLo5pb6oa7Y5J8rfprtarIKrK4+oadr66re6L+sP19d768oa4r7YrJoxpoAAFZb777Yp74w4745goLo4aII6Jqrra4b5YZ6oLLyJT1ajB4SLwA4zAfBbqaP5I75qb456b4pY65a75aYrY5YpI76I54IRQQtC6AAXWqrL7oID76jI745BIZIIrK4SYLLqYI7JYq4rbr7aBxYab5KJp78aPm4WZJ05p17qiLf7YpKIDoh8NgKOOe9etZpZ6IZMf+MBfgyGEYYLKJIo6y1d0FNxbjwajCCjxzRxBSINL5HKoP5KobJLrLrIp6P6aPY2Yolr5pLS7JGZ4Q67oJIJYaJN5ZLa6poa4YTZIhzwK1U/MqqqILZYKMlZ76YroKapzY5YZoDp567oIJJ47YipSEKwDJj7B3IpZrI+5ISZ5Y4TKIeL4p4ZZKg4KJpq7aIoqf66Is7N5/45TH18Oqq47764EmUk+PdUWBQ6izKwKiBKTSa0pAmZrKJv7L14o1IXKaNZKQqUMuEJpV6H+5WZp3oZ5JX7s+Ku/ue7vY76YaSxDzDikFWsfZoLLoKqb5GYjpYK57QxQ66Tqaxqb5pJo7ArKoA4AA6RSoSJiA4LIZr5IJbLb6bqq5NKIbaIYqZ5poooqr7IYwqoIJbIj4SykFUNh5L4o45qoIwKDJb7KagJD4Kj7ara5CpKIoIr5YS6Ap5hKKQ4Q7LL6LIopYrZLp6Karu5p4oopqIqsKIqLYba6opoer4KwwC6kHUNSq777Kp/ntGO3EjRTygBQwxjwCTpiA5T7J6JK1I+456rLJ4RrL4Z5D6H6IJKa7aYJZcpK4Y57bbov4pLYZbu+SpgbBRRjzQzV3++W75b757Lr6ZaqpKgL4QaTLYI46r5poKYoLr66q6J4JqI5I5KgYK7JrJQr7ZpoJJq4pqraI4IooZ6t7qo6Lp7aKo7pSZjA4oHH/APWnSOC++6CyCiuSaKGOiyKwCKy2++GSae+yymOCr22eyay2UqBG+hCGpGx+OPmebKoKyae+K+b6yCCHi66WWu6GwcI8YQAUxsNvXreTI0I2+q6mqICEIC6qQESU4y2eu5yyG6826/Sy2SmOCmu/C6y+ueeq2+nCO6OKKCSKOOuOGoKkq++iSO6iSu9SDu+uKMi60pjj/f8AYaPKFDsuqtnImjiqnkjqsooulnmKilgot61ghgNpsqunurriirm+JgnkTpjesijqMqrqkPiuZ59bSS+g40xkmbXfUROABjrihnwxBPANCPKhgvQREdWeQtPQsigsTOuTXFXOUGrQXacZWaTUdTWQX33bXUVWVbTTbWXXe4hnig3bfSYbAcfbSQQQUdPMgogjtghghvlKGAJAEOMFsojnvgkoslgkurnumqnrjsovtmsjnrqhjPOAAAHOLLCBPAAGAHLPPBQffaRWZfbfQQcYYUUdffbQQMu6w8707/8A9/Arm6DxzyCABwCBzzwDwAACCBzzzwDzwDwACABzzzzyADzwCAACDxzzxzzwAByByGEH2EEH2H0EEF0H0GEEEH312D797wD38N8MN+EHyD3/xAAC/9oADAMBAAIAAwAAABANPvc/krQoBRytNGfN+PIeeudvONeVcu/DtSMlDUorkMaHc3fa3v8Alj/1P9zz/LLtjndDBtN3RDk/v8GUqBqWfrtZYV6QJOvjXv8A2bw13/8AEOjam4jofy9tAmhAuHOs3cMlUtPy9ipGRmL5kJbnL1c5Ues0/fWeEes6/Kssf1cvEXqmPeO/GB6v57o9rkG5WoiSr8sfNMK/OP8ADBjzJhF5qPUf/A4w47ozv0/ovXMV9yNWR50RfB6/t7I5RdlfMNtC9nt7qBJ2V599vmD5SYzSSD/HnLfjDncIi+miSWK6ymq6vXrD/ZbSv+D7zzvXP7D/AJr9iw5yl5UZx2aexQU2ergRVFma4/6Z+7ez5T/S8wbsjSnRV656Q0fbh/5gCvv6PebC1RPfnbVuVQj/AF7+8sMfGettbucMetuMufsNNrtdscMmnfGn/wBp539XPBwNzQJ/JJfbINHkbBLf175hUx9Zu2rSwQzj6m+yeBK8czYCmU+C0uuumT2dDr//AHd+3liBtLBTK2BUTVm/N4YDzBz0yTd8/wANX0+fnOdFk7HFy3yL+GSHKXUG03fRXlHZ5/T0ZvRKr7trZO6JKqLrrY6rDApKqp8f99tF8ObbHDwyO+1reWxv/wACfuLXd9BPXh59FfFLfB6qZ+S3LFfjag7E3ZPXAuORT61zSjlG3+HdVGeaSg7SGX4eGPmw84cScK3TBxJT5r6KafQIsifH/DbDFzAnrkLevb2zNCDn19olVW0peFKlMu9N2JfCNixhgf7Wx9i9qyShOLAD7RnHLLnzDwN5HbAfHH9XxTfvH35h3H+Nd/iosQwDW8gsrTZeKkomBlrNlzNp9pkhZhyGaAS/iMkSwGpR3z3rjbkrezFLrJl3fjz1fGED+qHW+quu22DikQikMj9XDDb/AN2yuojHz8s+1948/wCMuqFO++k2f3d93/FmPnZ828Zk9NzWFgmnGo8LDtvUtXrr/vtlWuNPsaf9JzbZRcI5Qw+gjjpxwKRAcmNfsNNscSE1evkjyYzCWeQDG1OfD0PGWOnUk1XGWzEUrBHQVYFSjcyYVmzmmH3pPcgFaKE6HV9t50q8MMDopwN4ffbNNsiKSqb6aFf/APHfnXwgyobjbXxD7PDPffypVPr3JPN7r5DZ1Xx+WR3ydKeARNJIth2vFTImpxPSp35N3cZDrNHvaCWH8QfC3yyz+ia4xaso8ztxPP3rPTEUa0TnHLlXDXDvqLrlrPKsJ5FLHtdTz4ORid/WiyV+it6+AgnjpHEE0DVa5NTNcdVO3DiNQQwnEAn0/fGwGOrbexRA6iDdLzrH7vghtb+RnMXA5AvkF3ECnYH8uzev3OFvKpKp5lp5Gdu1xi95+tI4BcdV680UJUOnST792qhKVh54TJZ9MpHQLT/zjAIUSXPZv3fzbz0SXKzfIXo7zRizJtbLfvzjNlxXrBH1lL1Guxm6haBWyBmHJf8ASSxBxxf4yxUVXXfW2q1+33kps5mg4p+pm/NhDKeuJEIs9129/wDffQQ5AtxjcA9eTtM10ef96HMc9dk0Ell28F3GhmGK17uYjUH7XEFVQnHjmU8oPAbJedrtOnpPst5P8ZIrbbKO88dddONO4Ft8N/8Ar/cExBNrnEpwq8z9HfmTS0jSCPyHZelN5nsN9/YR6F+7zU9lsJJRRGxZiNBbxvPqx+f7jCl2lrHhbPyH/wA768rvsijliivV68Z3/wCevRoojeCosRtvDsddfr8+qkZf0K81ncGnpzIbULcbcyOMJ4Np8FmPc69wck3/ABstcezjdSFKlPPBrepvXWyv6q6/S+3OWdrL/HH9f38hNO2dhk18wsHGvToqGBqlYCReDq1JGlmfTm8+ta/fqdoa12zT+1K2l+2LjYzeMFHIz1YxI4w8C2ayQnpLvbfxPDrjDfj3Th1JP38wStTSfzKTSzjj/TW3fo7vrDfLbGfzhepTDhrDsHczvMXz6HRrHpDHePlj1G4jajn7nSKyv+nj0DIYCGGaWWKKeSc1UvDDRbzpDzcYOZm+en+n+OLP/vnvri1R9LO/bXE4pHkbvhvPNKYnm4P3l/ohtmTv3xVk55ZDKbXzf+eCNuKTAXCCLu2K2OiGS/SQ1bbKt/8A9cw+FKCS2VqmMtlPwjh9l31D/puun7jjxz8YQWbNeXDUqWWkFP7A3NN/igsw4m01xww5nhl9knxz0d42hgzEhqpvEPADnEV90Qwcbw52lqkPpsj6N87/APuPOd+cPNuvaos9te9E9SOL0fPkeK/8bOdP/q1luXtr9s+uqMuaevMsaf46oYa6Kgxw06lDDobYWYAscSGuM/McPzq7hZZY9Dvee/fN838ffPvKO798bfO614NtQ2XzWpHQ8DXhaHjglscW9ojutdPYPdB+APtz4ccPvfd4zKq7w2XGWZ2uWjm+fc99NKaSku2keSbDi94C1bUtJBTi4urLHJr81pFUj1mBXokXO0juLm7aVu/o/jZ9kdMx9P8ApGuae2P0EIAqsN3hQnAg+uWwk4XDf/DfznGKjIiCC6y+qr35fnDXvR5PfLH37GlX3LqHSJXnxTuTWAFha/7KwM7TPz4ivrjn3tXr1wbzWqW04eACJczHz05sBs0TshrHzDjr/r6tNE9LPTZBkIPW5DsL5w7kMOdiARWW6hvBiBKeVCxMEeWqEfIbLwyuh2NvaAy21eiOWBuLTuPznXafocHnsySCGCCKtdLXTfTPHzqmqlqUqa+zjExJbTgfPgTDyT0rjszTKDofrl7fmnV/XpzdjnWdL2fzuD6LbnnbabK/7vbiOmGguOIkO8pCAQM+A2W6hFrSrHzLvLmWqMyAuXSPX1/9D71LD7PztXezjq7b+H0vJl/1z/cDZnLNvjGJTGzvarnLzPvfG3a77em7SGmS6M8kYE89gEsy6Txsplrcp3D3zT/BD1rpN0EMEopQMEO9FAvgAi4z3WHaFMvWymFviJYNxqyi07F6/qLTCja2P3vXOTOH2KCb0IYxWxpdewSYKDHqiPTZV7jQ59rP/wA3iutrgjvpA7zf0U53095y362z1cb318qVcWe0WSeQ2wavVzz8P+5s13nb042qxz/br4zktzAgONgDDCPBAC4V+1achV74CDRVRVwyrjhkqmviq2xi+d5+j0/v4700wQZ+y5yxvx3i5lF0fjuZjtZi3qg75h8rC4+uvtvA0onnO3FtBJrdib0803983/jwJ882Ty32yc11oliDqCAhntAL/AMrv/3Wjij9Iywyz7rVk9275r94hU8meAmu0/zu6zg8y0U746Y5E9ODLiDqLPp+Zm6jzddnCP8Ax99d8PWNOOvm2q7ZQtKarJvPqtcf96OHy/8AzjzcYOtvcbq7hi9bOl+pJnPI2rdDHRfyeHYT1v8A9NhoN1zXWR9qwcZRds/bbdKMLvilim70yH9y291V8rVgMUfaZpNW+slseJtxQBnPwHsJaT+dxwXM2QNTZ76FFGhqp380dVXZV0tvFcKvuXEr5nttlUffbSMDs2y64jnupvL6+O707zz7QUST+71788z6/ZfXZyw8zx7cSQceYbVee9z8/wD+futPcev+9Mt+/wDzuC/DDHPN5RRFtxthhpJBNRR0KObrPvnfG60ZD72yhD/j/wD3w4ww4/8A+MMMOMN/+OMP8MMMN/8A/DDDDf8A4w//AP8A/D/D/jDjD/j/AI34gg/w/wAP333310GH3130F30EFz4MKByN8N+MN2Fx9z//xAAuEQACAgEEAgIBAwIHAQAAAAAAARARQSAhMVECMEBhEgMigQRSEzJCUGBicSP/2gAIAQIBAT8A9Hj+n5fjdpXwePh5eTpH6nj5eHk/Fvc/p2vLy/DyV2eVptFvUtT5hTiXLHjW/RhS+YXMqXxLlxlSpx7r1ofoTpo86Xn+X5Jo8X+i/DxVteTe5/UV/i+VH9Mv/p+XSbPP/M4XDl4hIfjWl8wpxLhD04l+jCl8wpXDnEvSuRwuHOPnUfyJtDb8m23uzw8l4+HlvuxlGNFzt2bRt2OjYVWbGxsbTaNtWC5vXhRa6HzpwXGIvVZcLOuy5sv2Y+Rhy4U41PS+FpU4nCl8wpxOPRmVw/kY+Rhy4U49eJcLVhS+YWrC9eH/ALDsbadupv6jZTZez2LL2Ww3C92NK5Lmyx4LLHyWKLi4fC0qbnHyH7EhThlCHyjl6MOXC5nEv0YUuPHmcOXwoQ+XClcOXwpcLlasfGcP140bl8m5UbiuKZgplMaZTFyimVFMpjlopiTKZTMIplMfJTEnZTKYuGUUxp0ihJjTspiTKZTKdFMofCKKGULlFFRRRWxRQ0UypoooooqcRRXutlstlstxbE2Wy2WW+xNzhxY2WxOL0OXzCnClx48qVw5woQ+XCn/TLl8+jEv241r3uFOFC5nDlwpxqfL04UuPHmVw5fChcnly/wD2FOP5l4l8wuZ7nHtWlaV60ooSKK+yiivuKKKKK2ZX2V9j5K+xLfn1qcaNuxc8lLs27MFLspdjqlvg27FXY+Wbdiybdm3ZtRS7Nh4lmxtK4cbRsbGxsbGxsbGxtOxsbTtXxlPULmcOXCHGJcU5WZxLjx5UriXwoQ4WZxL0rnVj4+F73CnoRlDqMOEh8x4oevBkYuJxL5jx5U4l8KEOFOJcuFOJwtK9C4euivWjYtGxsKjY2NjY2HWxsKjY26NqZt0Wuh0WhVG0bdG3Rt0fwbTepuEzbqL2lvic8F/UWWXsWWP/AMhczZ/B/B/B/B/BcX9F/Rf0WX9Flllllluiyy9Flw/StKHCl404cuFz6XCnEuFzOJ609zhS4XOrHyUP0rSh6XiFOHLhczh+vEvmPHmKMS8aa5mmUymNFCTsaZWjEtemmUUyor0Ln22Wyyyyy2WN8FicWXyWWNll7lv1IssvaXzHjzOJeIUrhz1FjZYnKnCl6cacfGQ9C5HCl404cuFzK4c4UvmFOJfMLlThy8acOcKXzClZnEvn/YFFRQiiiiihlFFFFbMplMaZQk7KZTEuSiiuCihrcoSK+yl2VtyV9lLsaV8lLsSV8lLspdlbPcr7KX9yGuN8FLsS+yl2UuylT3K+yl2YRS7K+xrfkpdi55K+yvsXD3K+z+TC3K+yl2Uuyl2ivs2NuzY2NjY2NjY2Nujbo26iyy4sv1L4GHLelZl8KXzCnEuFzOJeIU9z1LhczicLSviPhepfAxL0rMuXCnGlcziXCnuepfMKcS/Q/gv1L1berbQs+hTjSuTaFwy/ov6HH8T3F/Q8S4U4l6rLLLLlt/LWp6caVKzOFpU4lx48zhy9KzqcLM40r4D+Ch+p6cS4UrM4l8wlvOJcePKKKZTop9FPoae2xT6EinCWzl8KEPmFnRUNTTKZWrY207dfCWiy4uLm4ssxLZcNlzZbossZYnOJZbE3ZbjBbhwpw4sfMK7lZ138DHwlOPbhy8ejGlTiXHjzP+mXC5lcOXC5lZ9GPXub+p/CplOinoRRTMS8RTGnZTKe5TKZW0uEbdm3ZtXJS7KXZsUuxVa3NjYVUbGw6s2NjY27Nq5NjYddm3Yqvk27NuxcM27Nuzbs27NjY2nbrRZfofqZdL4FvVbMS8Qh6cS4U4l7QpWlcqcS4XM4cvEKcfK/W8q/TfsXrXE9Qh8wsziXC1PmFqcLnU4XM4lwvgqb9P8AUv8Ayr41LvQ8S4VTiNhl/QqsvRY2WJ7oubLHCbssvQ9ONF/O/Vd+b/2LEv0OFytTjx5nEvTj5r0N0mN238fD9eJcLRRQyhLdCRRWxRQ0UJFFaHz6tvmfquvD336LLmyyxwpx/MuFqfMLmcS4Wp8/DSmmfiyivtFfZsbFotdF/Rer+oe6Rb+VhS+YU4l4hTiXzCW84lwpwoXKHzCzpplMpxSyzbs/aftLXRa6L+iy2fl5dlstl6b9X6jvzb9VFM/FlMaZTKZTKY0yn0JPop9FPoSZTKfRTpFPo/F9DTvg/F9CTPxZ+JX2UuyvtDrspdm18n7ez9nbL8a5Z+ztn7PsvxP29Frovx6L8ej8l0Wv7T8l/aj8l/ai1/aj8v8Aqj8l/aj8v+qPyfSPyfSPz+kfm+kfn9I/N9I/Jn5M/Ly7LfZbi/l2eTpDH8G2WWy2W+y32W+y32W+y2W+y32Wy/8AgnkmzyH/AMXcLU4XI+DzGf/EACwRAAICAQQCAgIBBAMBAQAAAAABEBEhIDFBUQIwEmFAUoEDBCJCMlBxYJH/2gAIAQMBAT8A9FowjxpqzzVK1weNUikUpXMPUoc86KHscD41qHPM8uVtD1cypUPaXPMr1MWlQ/UtkqH8rb4P6f8AwR/Uf+Ndnjsoe8qGJ6VDnmUMuHo5craHPM8uVtDl7qeZUraHL4nmV6mLSvZcIabaEWZ6LMzkRk5lGR2ZMmbMmRWZMxmMmTnTnUt3GRbaKKyiihb6qKGooraa0UUUUUV7OfctK08yoc86lDnnS55nlytoc8oUc6XtLnle1+lRz7ltpWnmVDnlehzzpe08z3K2h+tihxaOfTfvXvp9+mslFCRQ55laXPMqHsVNFC3ZRQtkUOKOVPL0vbVz+QvXem8qGLTyoe4oc8ypUOeZUPaeVK3crZQ5e88uVD2cviefyF6G5xenoxCi0Wi0YtCaLE4c2rLRaEy0WotDaLRaOSyxPB8kNqi0Wi8otFoTVsstCapFobRaLRasssUWJljeC0Whsss5LLEyy9Fl/QmXNl5m9Fi29DKKKRRRRSKRS6KRRSGlTwLZRyUUJIpFRRzKlbQ55lFHlsUUclQt3D2Fsoc86lD2lzzpfr51v0vUtlDnlw9mLZRypWnmVK2hzy5W0PaXupW/l/7D2YtlDnmVzDFsoe08qefa/wANxZcossssRY9hbFl/5IssRetaXxK30ZHsW+jPRm9jPRb6Fdst9DvoRkd9GTJmzJkXJkyKzI7oyZHdoyZM2ZHZkyOzJkyZMisyZMmZyfz+K5708qVD2nmVpc8yo8tp5nx/2/8AYYofE8ypW0PaeVPMMUP8t6lHUrmHyKOVKh7TzKhihzzK2jy2nmVv5Soc8ypW0PaeVK5h+u8rTz7mZMmTI7FZnsyZ7M9ivM57M9mb3M9mexGex3W4ttzJm9zPZnsV9me9DnkzCRkaKfZT7OZXMqGfyV9lZZRQlDumK6UNR/LKyUUJZKKKKKKKiooooor0L3rZQ5WnmVD2Yo5WpQ55lbQ55lcyoc8uVtD2YtlDnn8pbe5ieFpXOnmVD2YvQtocWXkuFtD2LLOS4T30ueWWuy12Jqi0NlloueYtCZaLUWWWXFxaL9ORi9dFFFCSopDRSGkLkodRRWUUihIoawJFHJWlaKRyUjAtoaxPJULnTyio5ZSKQkqKQ9oqaFvFCioorP4L9Tlbx5bC2Whi08qVD2FD3WpQ55lbQ9nPKlcw9hRypW7lbQxQ90KFvK2h6WLSttDlex7FliLLLLLLLEyy4svJaLQmi0NrsstF5RaLE9yyxbIsbLL+i87F/Rf0J42LfQ3jYv6LfRedi30W+hN5wW/1Y22thN9Mt/qy3awX9FvovLwW/wBWW+hPGxb6G30Z6LfRbtYP4P4Fu8F/Rb6E30y30W+jPRkyZMxTKMmTMV9xRRRRQt/avbWZVQ9p5Urdyoc8yto8tnPKlcw9tS3craPKeZXMMWqvwFu/avbzK08rUoc8yo8tp5lQ9p5UrmVtDnmGKHLlQ/evzUZ6HZmcmZzGRxkzZmFdGR7GTJzuV9lfYtVQuT+YSdQzJk5lIozoooooqUv+m5lQ9p6nl6XtPMraHtP+38QxaeVK3craHPMqH+Jz+OxaeZUPVy5W0PYuLlbFjaotFlqy0fJdiZa7G12XF5UWhPLLGxPCLHPMWJqi12Wi0WtNznRkzDhiUc+t6KKKK0KaKOSihIooorRyykUJYhowUUrlLBSGsFIpFZKKQihqeSjAikNYEikOKRWSikLaHpf5jnn0LTzKlaeXK2hzzK2jy2c/7L/yVD2c8qVD2YnHlxqW0P2WX+M3Liyy0WhbQ9otHMrmLEyyy0fJF5LL+hQzJb6M3sW+i30Jutj/AC6HdbRbM/IyZFdGR2Z6MmbMmehWZ6HdCst9Du0W+i30IyZMmYzqoqK9i0JW0tb9VISijEcqKFzDFsoc8yoc8ytoe08yoe08yoewto5UqHPP4y0f2nh8v63j9Z1v1rTzK5lbQ55lQ55lbQ55lR5balDnmVD/AAX7P7Dx/wCfl/Gt+taLfWjuVZnocZKdmTIimNMoooooSKGsFFRRQkUNRUVC08zRWta1daUP1f2y+P8AS8fwlp59DnmVD1LaHtPMqHPMrbTz7ri/atHir8kuzxwkvxHL9DnmVDcWi8lotCeCxtUWWXkssTLGyyxblliuixvXkyL8v+3V/wBRfQnrf4FRRRRQkUMqKyUUKHPMraHtPMraHK3hnjsoet+y12fJXufLx7G0X9Mz0Z6MleXZXl+x8ftnxEtP9C0my3repepijlwxbQ55lQ9hR/tPjtHls5/2/iVD4lbuHszx2UPdSi12Wuy0Wi/pjvoryMleRXl2U+yvs+P2z4rtnw8ej4o+KK9/gq8UvVZaLQ/JCaG0Wi/Hs+S7LRa7LRaPkux+SE0fJdiatlrs+S7F5Kj5LsbVHyRZedmfL6Zb/Vib6Lf6jfl+pfn0i/PpH+d7I/z+j/P6EvI/z7GvJ8leXZXl+x8H+x8fL9j4P9mfB/uz4+X7s+D/AGZ8X+zPj9s+K7Z8V2z4Ltnw+2fBdv8A/T4L7Pij4o+K6PiuikVor30UV6EraE/waRS6RS6RSKXSKXRS6RS6KXSKXRS6RS6RS6Mf9zXpooo8Wjwf/wAqtL9D2EeEf//EADoQAAIBAwIGAgEEAgEDAgUFAAABAhESIAMxECEiMkFRYXFCBBNAgTBSMxRDwSNiBVBgcKFEcoKRsf/aAAgBAQABPwL/ACyLS35LS0tEi0tQ4EZyjOyf9CRai1FqKCKFEU4flwm7Y1I0aT4Sx/8A1Ul/7TWnZotrc062Ku+Ed3j+SxZHZYrv/rGW3H9b3aMV/txju8XlHzjPb+8o+cZePvKHnGfj7yju8Z9uX5PKO2MsvyxlsR2x84sWP5PGYsHsR2WK3eP5YvdfwHx1NSS7UL9/eTPBLVoaMpuTrx/VLtfyQ2xj5x/Lh+pdNJmmqQivjhLxjp8/1WvL4SP1PbpR9yNkaf6q/WspypuSkoqrJfqYpLpe1TSmpq5eTU146bSafMhqKe1eL7li9iPauOvq2JJdz2FpThF6lW5GhLUlqSv9bcNfV19OVFNVfghdbG7enPhpastW6X4+Cq/cjz4T6/1sF/quMd3jPKPnGe2UPOM/x+8K8NPz94z8feUe54y2yW7yjtjLL8njLYWPnF5Ld4y8CwlsxbYx84/lj+X8CXCexpc41JvwamooJIhbSrNGnVT3x/Uc7V8kMY+cV3cNeV2rpwL4VpXnwY5xXkTqq8f06/5n7mzUVdX9P9n6l00Jv4NHShBKSXNo/XS6Yaf+zNSH7f6aX+1D9PG3TSJa1n6h39tORpzlP9R66duL7li9iOy467s1tOcu0n+pjSmn1SP0kZKerduSdItn6SCa/de7fB80xQ/VacLFFfZoaVnNusnw0uf6zWfGO8sZ5R84z2yj5xn4+8tPz94y3X3lHd4y2Fiu55R2xl4yXc8ZbCx/LGW2UfOL3WMthYxxW7x/L+BIQ1UUdbTbSVURXlmpownzY9GFrNCKUeXF9Wul6IYx84rv4aNJ/qpP/wDotXohOblNSjSmxr1Wm6bkrrU1X/3M0+yP1xhBw/c9OVSxO1+iUVOLi9macJQVLqrwPTi5KTXNbE4qSoyPkcYvdH7a/cv80pxl3QxZHtXGiYoxWyPzGqqhp6OtBW39PGewtuENO2U3/s+Md3jPbKPnGe2UPOMvH3lDzjLdZR84z2yXc8WR2xfjJbvGWwsfOMslj+WMtso7Yrd4x3f8BiwY1WLRpwtXBmjzlOZHGPnH8uEv0rSrCfUnyFq/qdno8/ZpxkucnzJGtC7Skvg0+yP1xZHbFbsqVKoqN80VRVFUVQ2iLVC5FyLkVRXqLkXIuRciTVBNULkXIuRciL5suRci9F6JSVC8uRei9FyFLcuReXl6JSqXF6Li8uIy3Li4uLiT2L/gv+C4v+C74ISLvgu+C74Lvgb5oufoufoufoq/RV+iNeZWXoul6Kv0Vl6JNnMrIrIrIrIVanUdR1HUOoq0Os6jqOsdx1HUdR1FJexVqUZSR1HV7GmUZzKS9lJezqKOpSRSXspL2UkNM5nUdR1HUKp1HUdR1HOpzOZ1HUOpzOZ1HUcyNaHUdRzOYqnM6jqOZD+AzmdR1HUdR1HUdROMpKlSMLY0FU6ikvZSXso/YkUfso/ZR+yj9lOZb8lvyWlvyNFpaWlhaKPItLEWItEubLUWIsRYhx5otRai1FqLURSoWotRai1FOotRai1FqGlQSVCiKIoiglzZQoUKEsl5xlwphHzjPx95Q2xluvvKHnGWS3xlsxbYvdZLzi8lvi8WR2x84y8Yy2FgyO2DIbfwHixYxxWPnGWLI7Yx3eL3WUdsfyxlsLbFbvGe2S3eMsoefvGXj7y09sZbx+8oecZePvJYy2YtsXuso+cXksXvixYrfF7rGW2MtiO2EtiO38BiwYsY4rfH8sZYsh24rd4y8feUNsfyxlsLbFd0sZ7ZLd4z2yh5+8Zbr7yhti+6OUMZ+PvJYy2YsfKyj5xeUcXvjIWMfOP5Yy8Yz2FhPYX8CWLFtjHFY/ksZYshtit3jLx95Q7cfyWMthbYx3eM8o7vGeUPP3jLeP3lDbF90cobYy8feUfOMthY+coYvKOPnGWwsY4/li91jLGX8FiwYtsY4rfHysZbYsjtit3jLeP3lDtx/JYyFtit3jLJbvGeUPOL3WLIbYvuWUNsZePvJFSpXhLYT4VRVFSquKoqiqLkVRFouRci5FyGypUuRVFUJlyLkXIuR5LkXIuRVEmVLkVRchsTKlUVRUrzKoqipcivMqVKoqhvYqVKoqPuX8GRci5F6L0XCZcXIvRcJlxcXfBd8CfMr8F3wXfBd8FeZc/RV+i5+i5+hsq/RV+isvRWXobYq0Ky9FZej9RqT/f04p86FZehVqzq9HX6KyOodeX2dR1HUdR1Ea0Oo6jqOo51Oo6jqOodRVOZzOopISdWdRRlH7KS9kqlH7KP2Ul7KS9lH7EnzKP2Ufso/ZSXskmUfso/ZSXso/ZR+xIo/Za/Za/Za/Y1sW/Jb8lvyW/Jb8iXIt+S35Lfkt+SnNFpb8lnyWFpFci0tLSxDW32ULUWlqKCRai0tLUSRQoi1FqLUU5lqLUWotRREUWlqLUUQ0UKFC1FEJFEURRFEU5lEWotRahooWotRaihGPItLUWotEuZai0tRainMoULUURTmULS0ofl/BkLhTisVit8fPD9PJyvq/y4vFkduNLv/iH/AO1cFu8ZePvKG2P5YvYW2K7njLbKO7xn/wCco4y3jhXhDtx/JZQ7cZ/j95R84y2y/LKP+OOPnF4sW2K84+cfyx/J/wAGQsGLbCpHCetCCq2aWqtStCWpa9qidVwlrxTaXNmnquc2nGjRry1YqsaUpzP0cJrTq3vzNedmnKR+n1NTlHU3aqSxZDbj+h6pa2p7fBdzxl4+8WR2x/JYy2Ftiu54z2yjvLGeUMX3Ryh24vvjlDtxnvHKPnGe3CuH5Ysjti91lHHzi91jLYWMcV5xju8Y7v8Agy46spPpjuacbTU1VHw2aWpGa5GvNxiWTi4TudW+EYxnKVd0LkmR07//AFLmQnWUl6NSVsGzS0ovraP03dqv3IlN6evJuDaexHV1dTViqOKNSVsGz9Lp0i5y3Zpc9fUZ+p7VD/Z0EqJI/Wbafq8sjcn6JbGppx1Fzb/o09L9qfLU5enxZDt4azt0pv4P0UbdFfPPgu94y8feLIbY/ksZbC2xXc8Z7ZR3ljPx95Q8/eMu6OL2IdqxfesWQ7VjLeOUPP3jPbJdzxZHbHyso7Y+cX3YyFgyO2McYbYw2/gyFwo1qVpwlfHUbsqmaOnbV03J6d1CUayiMh1aspeBeT9jUjVR1ORDTUCcFNUZTlQ0IOCo+FquUvI1XhGCjPl5ZJV19P4T4aumtSNGRTS5upPY1NP9xLqaIfpdOLrzf3xZDt4frFJ6EkiCpCK+OC73jPx94s0+3H81jLYW2K7njPbKO7xn/wCctPz94y7o4vYh2rH819YsjtjLujlDzjLJdzxZHbH8sWR2xWP5YyFg9iO2DI7YSI7LCWxHb+DIWDFtisfOL3RyKlUVRJiaKoqiqGyL5FUVRciqFJXFyLkXIuRJrkXIuXsuRfH2XIg+Rci5FyLkV6kXIuRei9DkhS5FyLkXIvQn1FyL0XovRKReXovRei9ClzZei9F6L0SkXl6Ly9FxGW5eXl/wX/A3zRf8F/wX/Bf8Mcvgi+Rf8F/wX/Bf8Feou+C74Lvgvfobfoi+Rc/Rc/8AUufoufodaoq/RWXoufoul6Kv0RqVl6Ky9FZeisvQ6lZFZ+isvRWXorL0c6lZFZeisisvQ7hXFZHUdZ1nO46jrOs6x1FU6zqOo6hVOo6/g6zqKSuOo6zqOodx1HUdR1ErqCuOo6zrHcJSOo6vZ1exp+yjKP2Ul7KS9kq0F/BkWlvyW/JYWiiWlhYWiiWotLEWIt5liLEWIsRaqlqLEWIsRKKLUWotRaiiIxVC1FqLUWoS6mWotRai1DS5fZRFqLUWotQkWotRRFEfkUKIoiiHsLYoUKFBdzKFChQntwoU4x3fChQoS4UKcYefvGXdHFkO1Y/n/WMtiPasX3RyjjLJbvF7C2x/LFixjj5/xT2FhIWDxl4+/wCFIWDFtjHziu7F7rGWwsGQ7cV3vGXj7yhtj+WMtiOyxXc8Z7ZR3eM8oYy7o4y2ZDtWP5/1i9iHasX3xyhjLxkt3jLYjtit8XlHHzj5xljLF7rF96/hSFtgyO2McV3YvfGWwsYbYruxl4+8obY/njLYWyxXc8Z7ZR3ljPx95QxfdHGWzIdqx/P+sZbEe1Y/msobYy8feUd3jPYWK3eMsWRxW+P5YvdYvdY+cfz/AIUhYMW2MfOK7sXusZbC2xhtiu54y8Yshtj+axlsLbFdzxnsLGO7xn4+8obYvvjjLZkO1Y/n/WM+1kdlj+f9ZQ2xlvH7yj5xnsLGO7xl4xZHFY/li+5Y/lj5xh5/hSxYsY4/li91jLYW2DIduK7njLx95Q2x/JYy2FssV3PGewtsVu8Z+PvKG2L744vYhtj+fGpUlsJqhVFSpU/P+sK8I7FSpUqN80VKoqVRUi9yqKoqiqJFUXIuRciqEy5FyLkXIcuaLkXIuRcvY5KhFouRci5FyE0XIuRci5FeZci9FyLkXcy4uLy8UuovLi4uIsqVK/A2ae38KR1HUdR1DqKp1HUdR1CqdR1HWdR1VOo6zqOo51Oo6jqOsdwq0Os6zqOojdQ6vZ1ezqOr2UdSkvZ1eyk/ZSXsaZR+ykvZSXspL2Ul7EmUfspL2Ul7KS9nO5FGUl7KP2Ul7GnTcSdNyj9lsvZSXso/ZR3HMo/ZR+y1+yS5Cj8lr9lr9lvyW/Io82W/Jb8lnyW/JKJb8lnyW/JZ8lvyRiWfJZ8lhYW9SLCwsLBx5EY8iwsLSxFOr+i1FiLEWIcUkWosRYixFqLVcWotRYi1FCMeRYixFiLEU5otRai1FiLUKKLEWotRahxLUWotRai1CRai1FqLUUVS1FqLUWoaQkWlqKIoRRQoiiKIS5soURTh5KFOKwZHCWxHb+E8lgyOK3xr1Ljo1lqT1H9Lg8obYruxllHbH81i9hbY/lwXGewtsY+cZZQ2xffHGWzI7LH839Yz7WLFd/8AWUdsXuso4yxZHHzi8o4rFbvGODI7YT2F/CeLxZDbFd2L7kI/Uyt0vvkacLYJcJbC2wZDtxTV7WM//OUNsfzXGU4wVWf9ZD0zT11q3cthbD1tNOjmqiae3H8/6xnsLGO7xn/5yhti++OMtiOyxXc8Z7ZLveLI7YvuWUcZeMWR2x84vFixjjHBkdsGLbCXj+G8WLBkcV3Y+UI1+c9Ff+41dSTTjpVu9mhOU9NXb+SezNPU1taUrZ2pGlrXymvXnCHbh+q1JQh0rqZ+m0XGTlLupw/fb1ZU7V/+WaerJ6r05Rp014Xa80n00qaeqpuSXjGG2L748daj19OMtqH6jU046b2bP08LdKvl8yHaj9T+0v8AtpyZ+l0Zaabfnxw/UXamrHSTp5Jz/bXzQ0FP9tXPnhLYW2Md3jPKG2L744y2ZHZYrvf1jPtyXdLGWzI9qxfesoYy3WL2Ftj5xeMthYMhtgyO2EthbYSx/Jfw5YsW2DFtiu7HyuGvFy03yI3yjbGNq8sjFRVES2P+j0268z9KrJa0PUsIbYa9y1NOdtUtzTnWT5MnWyVu9D9Po2R6tzT5/q9d+kkTVYSS9CWvZHTttpuz9N06mvH5xhtwrxfcuM9KE+5Ev02nZJRXNkK/tRquaRDtRrdGvDUfbShGcZbPhrw1I6sdWCryoaUNTU1b9VU9LGWwtsY7vGeUNsX3xxlsyPasV3v6x1Nso90sZbMjssX3LKG2L3WMhY+cX4xkLCWxHbBi24VKkmVKoqi5exvYuRci5FyFzk/4ci5F6L0XouRUuRci9DkiMlQuRei9FyLuZei9F6L0Xcy5F6L0Xok6oUuR0X3+aF6L0XojKiL0XovReivUXovQnBNunN7l6JSKRuupzLkXIuLyEuRehyFqIvRd1IvL0XouHIi+RcvQnFbIvLivUXF3wXfBd8DfLYTdNi5+i5+i5+i5+iLdWXP0XP0XP0XP0SbKy9F0vRdL0XS9FZeiDdCsvRWXorL0Vl6OdyKy9FZeisvRWfobl6FWmxWXorL0Vl6Ky9CrcdZWfo6zrJXUOo6jrOs6xVqzrOsrL0Vn6JOVBXUKy9HV6KyKz9HOp1FZeisvRWfodxFyoVkVkdZ1nOqOs6zrOsdx1HUdZ1HUdVTqOs6/Z1ex3ezq9lJeykvZSXsafso/ZSXstl7KP2ST9ij8lr9lvyW/I4lpaWFqHEtRai1FqLeZQoUKEd3/AA3ixFChQaIrkUKFOC3404eShQoUJbCXLhTjDtxXc+FCnCf/AJyhtwoU4fkso7Y/l/XCnGWwsVu8Zf8AnKG2P5r6xlsxbYrveM9slvLGfaxbY/n/AFiyO2P5YvJb4+cZYy2Fg8fOP5Yw/hvfFiwZHbFb4/ksZbC2xhtiu54z8feUNsX3LFkdsfz/AKxlsLbGO7xn/wCcodqx/wC4vrGWzI9qxXfLGeUd5Yz7WLH8sWQ2x/LGWUcfyxeMsX4x84rueMNv4bxeLI7Yrd4/ksZ7Cxhtiu54y8feUNsX3LFkdsfz/rGWzFssY7vGXj7xZDtWP5/1jLZkdlwXFdzxn/5yh+X3jPty/LGWxHZY/ljLJY/li98ZYvu/xLzhLYjsv4bxeLI7Yx3eP5LGWwtsYbYrueM8oYvuWLI7Y/njLYW2Md5Yz8feLNPtWP8A3P6xlsxbLGPdLGWUPy+8Z7ZLueMthbY/li8o4rd4+cfOP5YrGOE3yF/DeLxZHbFb4/ksZCxjtiu54yyjhq6tjXIjK614sjtj+XCpVFUSaoJqhVeyqKoqiL5sqiqKoqiTKouRci5FyIyVC5FyLkXIqr19FyLkXL2XL2SaoKSLkXIuRchPmy5EdWLLkXIckXoviXouRciDXP7L0XIvReiUkXIuRci5FyKqpVFyLkXL2SaoJouRcvZci5FyuZci5FyL4jki5FyLkXouQpFxcXFwmXF3wXfBcXcyr9Fz9Fz9Fz9FXUrL0Vl6Oo6znU6ikvZR+yj9iRR+y35LfktFHkWlqLUSW38RlpaWlpQtLS0tHEUS0tLfkoULRoj1eS35Kcy0t+S35LfkaLS0t+S35LfkjEt+Sz5Lfkt+RR5st+S35Lfkt+SSLS35Lfkt+ShFFpaW/JrI040US0tLS0tFHkWlpaWo5KRQtRYixEoqgoqhai1FqLURSqy1FqLUWokl/wDktRai1FqKIguktRai1FEU6/6LUWotRaiS5FqLUWooiiIrnIklRmhFUKIoiXj7KFCiKIoiKKFEURRE1/8A6URai1FqKIS5soWotRaiS5CRai1FqLUJc2UKFEUQ/HGhQlyTNPnHgmuMSeq/3UkLj5xW7xjhLYWEthYS3X8R8JztIuqL+dB4sWMd3wn2mj54ecZbZR2xXc8Z8HqRqVXCToacq8FOb2P3ZLk0Lr1DUna4kNS7jUZDbGb60LbCfaxbLGPdLGfj7xZp9qx/7n9FyXni+RKScXQW3FtcI7yNaasZpcorhcq0rzJ/j9lcYbYz8fYuFy4x3ZXh+5GtK8J7ZR84N0K1kipVEZqXDWlyoaSpFcIrrfBmrqWxoaGnV3YLGODIbYSxl4x/P+I9xlLnUh2kOqVSbSIyT24VXDW1Z30TNN1gnwlqpOghmlXqrw1XyNPtHOK3YpJy5PjVIqiWwh61PBCansTlaj9yflciG2K7mPV9C/Uu+jXCUnfQ1ZUiRncmKNZE+l8mQ7VU1JTc/g0lRD2NOiqas7uSNKFEav8AyI/cX4oTqqjncyKGQ2xpXVRWheRlUbG+TI7LGPdIbNxKg2Slt9kpURdIjsS2EjT7UTb2K0px1X1/0RjU096cNTm6ElaiLd3CcufInVIjsR3n9k4O9RIxoSdItmlFyneS8fYlKU646e2GrqeENS5Gm3cS2KPccneuDna2Q5k3SJTyaUqxJ7ZQ88dV0aYm5GzO4lyVDRjRcJdTG+RHbhqzpyRPUnHyQT1GRjaiepaaOo5J1GRKleDI4S2I7YPdYvuWK7n/ABHuaj5EY9I5eCCojWdZGgjVfg0o04PTu1GRVFwlynXhKdHQj54ftxvFFInRzdTRT/c46sudDaSNSTnsaSpFmmlzqQ/5ORPtNN8iG2K7mS0edUft9fCcK80OOo9yELY0JQl4FovyLYtRDz98J6SkR0kuE1VxP20NdNCGlSXHT7cGLuRLc3I8kS3JdrI7LGO8iQuD3JVbX2STbLeDZE0+0fKRu+L03LV5myILhNEou3maUeEYc6sau1PhcI8r/s0lVuT4a2yRFURPx9mls8dPbjJ0RR7jUpUIxoPYtlsRh1LhY3qsXJElVDhI0Y0RPKHHUhcJUQ+4/bZ+1yEPYoW8+OrW8cKmlp2oewk5SJSjDYjK5GpO2BC+ZFUXB7EdsJbCw84/ljD+I9xwq+H7SurwlDmIca8XHyLbg4Ny+OCXOrI+Rkd+EtOLIwtnxenFupLSUiUUo0EuRKE/BCDiOE2RhaiG2K7mN8iPOa4yyh5xlvH7xZp7Y/kiiKcKcyWxHZYx3eM/x+8KV4Q7Siw/P+h4anayO2K53fYlTDU8GmqLHT24z5sSoh7rCnCPnGXjFkdsfyxfGp0joJobVB1T5MivZyoakLqEbYovRehyFIv+C74L36G36Ky9FZejqOo51Oo6vZSXso/YkU+S35LfkexDtX8SW5WRWXorL0Vl6HUrIrL0XS9FZeh1OZWXorL0Vl6Kv0JsufoTa8Fz9Fz9HOpV+i5+i5+i5+hlX6Ln6Ln6Ln6Kv0R2Ln6Ln6Ln6Ln6HKlR6vLY038F3wX/AAOVSvwXfBf8F3wXP0RbLn6Ln6Ln6Ln6H4Kv0XS9F0vRWXorL0QrQrI6zrOs53HWdfspL2Wz9jToJOm5SXs6/ZSXspL2KtWUl7KT9lJey2X+xJPl9lr9lsvZbL2Wy/2KP2RTa3LX7LX7LX7LX/sU66fBa/Za/wDYtfstl/sSToWv2Wy/2LZf7Fr/ANi1+yK3+y1+y1+y1+y1+yVVT7KP2Wv2Wv2Wv2W/JBcty1+y1+xQfstl/sOLquZR+yj9lJf7FJf7FJeyKfspL2Ul7KT/ANik/wDYadVzKP2Ul7LZf7Fsv9i1/wCwo/Ja/Za/9ix/7Mt+S3mWfJZ8lhYOJYixFiLIjii1FqLY+i2I0hIoUKDFg8VjHCewtv4j3xeLFisfOL8Ysj242qVRaNCnDV7TRrdP1lHzi9195R2x/NcZOiITuqS2YtljHeWM/wAfvKHbhKSQv+T+sZ9uUPy+8Z7x+xY6fbjLujlDbF9yxexHbFbvF78blwY5pEZqXBnO8WEvGNeeKwZHbCW6/ivfhXjPVpKlMWLhvL/B5GKvni91hLUUWXN7IjqwS34OcVuxST2Y+RGcb3z41NWRpqkK+2fv8+0jNSXLCPnHU8fYtSPvhUuT4Rni3SSJTl4NNtx5k9jR2bJbMj2rG+2TL+VSErhzo+E/H3wu5lT9917eReiHaXULipKNeZDlJ/RLVdaI05t78Z7C4ylRH7kqkPP2OXMXGW8fvFSqaU1SnCq4uSujzKrGG2DdEOcnJUI3eScqFJmm20akqRE521ISqic6EZTbGz911IyuXF6hGbvpwnIfLmacm1zNXUoRjduaa6+EnREebqOSihOvF74/lgxYS2Fh+f8AFe/DUrdzIRSXDVVULbBiJbEeXMeshTqLFdxdzoOVEXORpvkTnRl8qbEJ3cNWsppD6YCSoaapppEVXUaYopGv2jt8bmg5utxOVDnSooOc16J8oipRmnymqecI+cdeVKC07o1NKqkTZHdGs6RP0/Or+cdTuRCrIqiJEVREtiPasfzlUb8IgqIlvw1tl9l6SI9TqanYzlTYXcaXYiTrMSoiboxbEu6X0XU8GmvPGe2D6pFhp7P7Pzwl3R+8Hsy9o0YvkxuiFWRCtSboiXciClesYbYTIpV4anKQ5V2IRoicG3Ut5IpQluLY1dhW0NJcJ1pyKURprq4ShKvIcGRVEPTrOo+lGmjVrbyOuboJUoSum6eCKolx84rCQsHjHd/xXvw1ER7TVN6YyESLekdV+JGMhYrdkVzJRqi2kSGxOPNNDvZorlwsVak+1mlSxV3Kkv8AkXBqqI6MVJkVQ1Ny/wDcdIohC1k9icNTwaWlbze+EfOD2JK4d+xpxoakG9jThTclFSRpKip84yVZISa4Nc+EtiOyxsTbFBLhThqKqX2ftISpwtRTnJmn2IUFWvC3nw/J/RZH1hPbCnCLon9iq5Vwl3R+8XFEO1GpFsjGiEqEo1P2kpIS54w7cGJdXBpMtXCWwuFkqiJKpDTWDQt8fI1XhLmuRGCiaroacaIqiqLkJqpci5FyLiL+C74Ln6Kv0Op1HUdRSXso6lH7LfktKENv4rKlUXIlRnJFUXIuRchtFUciqKoqhMqiqKlSLVWVRUqjkPwSZDYqVGKlBpNUFppOvHzw5MSituEtsk9ypUqTfI8IqiqLkXIuRFouRci9F6G+pF3wXfBX4Lvgb5bCbpsXfBd8F3wXfBdzfIu+C74Lvgufok9uXkufoufoufoufo5+iDlauRWXorL0Vl6Ky9CbuZWXorL0Vfoufok36Kv0Vl6Kv0Vfoq/RH6K/Bc/Rc/Rc/Q3zXIufoufoufoufoq/RGTpsXP0XP0V+C5+ivNcLvgu+C74Lvgi+Rd8F3wVfoufor1Fz9Fz9Fz9Fz9Em6bFX6Kv0Vl6Ky9FZEbjqOo6jqOZ1FH7KS9lH7Eihb8lpaftpzLEWItRRCRTixYPHzhLYW38VlChQohooURai1DSKIoi1FqKCRRFqLUWoS5soi1FqLUSoi2rLEWotRahJULUWotRai3mWotRai1ElRFC1FqLUWoSVWWotRaixDRRFEURRFBLH8o4vYWywZHzjLx94s0+xYrveMsoefvF7xxZDtWP5Yshit3jLFixWKxjgxYSFh5xjhLdfxnvi8XksGLfGVaoSpgxbYrfGfblHuljLKPnH844vYjssY90sZePvhXi9iHasV3vGWUPP3j+SxZDtWP5YsWK3eLxYsY4xwZHCWwsJeMVvgyO2H5fxvOLxeLFgyO+L3WLFtit8Z7ZR7pYz2yi98fzjiyPasVvLGfj74Pi9jT7Fgxd8sZ5ab6f7xfcsXsQ7Vj+WMthFcI7vGXjFiwZHBiwlsRweL7sY4OSFwqVRHd/xvOLxlksY7vF7rFi2xT5vGfaxYrueOp25Q8/eL744sjtjHuljPx94vY0+1Yr/kl9Yz8feLNPtxffHF7EO1Y/ljLZixj5xe6xljLYWDFhIRUuRchvmXIuRei/4K89ir9Fz9FZehuRGpzKP2TdFuaMXzr5ZaWItRKUUQ2HJLcryqLVTnaPVgvJCakuDf8An84vF5LFbvF7rFi2xS63jLZi2xXc8Z7ZQ/LCqH3xKoqvZdH2fuQ/2Q2hSVC5ey5ey5ey5eyLV0iq9lV7Ll7Ll7JNcvsvj7L4+y6Psvj7HJEJdKL0fuRP3EXoUley+JfEviXxJSRei+JfEviOSIPkXIuXsviXx9lVei5F8fZfH2Xx9jkqMjJURci5Fy9ly9lVcVRVeyqKok1Qqi5FyL4+y5EZIvRei9FyK8y8vLi/4JMUn6Ln6Kv0Vl6G2K46jqOodS1+y1+yz5LS3mWotRaiiEuZQpxXFzit2N1QuGrJxXIV+pIS58G6Ilq1XSKHKr3G1CFTU1XqLkKUppQj4JU0YfLNLRv1G2UjpVdSLnJ0RFqltai/zPcoU+Sj9lH7GjmUl7KP2Ul7KM6jqOo6jqFU6jqOs6hVqdR1nUVkirOs6zrOsdRVodR1FZejr9I6rjrOv4HNoWo2x3UFdQ6/g6zqOoVbmdXspL2Ul7KS9kk6blr9lr9lvyW/JaRjuWIsRYixFquiWotRaiaq/wCy1UIrkiiLV6LV6LV6FFVkUiWr0WotRJbfZRFqKIoh7EF0ooUKcOSlIi1IoUKEvH2UKFEURQglaURaiiKITi5lEURRFES2YlyKItRaiiElcyiLUURaiSRRFEWooiiIrkUKFOHnF4vF4+eH7yqLWTlTguLdCep6IRk+deD2IKOpWptRC4aj8IhG1C3fDXbWmzR0qKr3JeDW03OFqJfpe1R5IhBQVEOKdCcow5ijPWlX8TnWiNKFP8/5YvF5LFbvCWxHxiyO3CqfH8uNG5MWnQlsxbYSbuFu8ZbZR3li+6I3Q/c+CU1azSVdRD2I7LGtHIjdOdfGE/H3hVF8ZJkO1YMluyLUUJ14y8ffGrrtxh2rDUdIs0qKf9FVhLZi2x1JWyIuqwn4yhtjermJ1we45UP3VXi98ZanPkRm8Fuaz2Q1CMDRXVXguOvLlQjHlzI7cKn/AHuQ9+NvCOH5YSdEKL1nV7FFSh+3CAv8/wCXHUnQ07vJqaiiyE7uDnFEJKRqO2NTS1nJ0oak7ER1U+DK0Qpcxn7krjUnsafMlKhV8JTTE+aJukSDlcN0VSOq5S2GQ7UM/bkthKXD8+HIb61wlsxbcW6FaM/eo+aIyUtsJ7cJSofvv/XjHd4y7oEzpoanPY0Y0iPYh2rFqrkaWpC2lT92BGVfHCfj746mxSNO4hW9kO1YMb/9SRQgqLjLx98U0+On2LDXqaenduLTSwn2vLXfNml2LCXgbohag9WjJTZGdY1I7Ya0vBGHJtmjthN8yMfZJK5cfyw1JURCXNkF54siakLkUk5WkY0Q9hcZadZ1HxlGpGCiLd4NiaLkXouI828JpzdPAlRDFHnV/wAD8uNKz4aqpM0o+SdbeRDSlzcjQW5rdjNFK01ecqDSqqcGQdwl1Etiok2R8nOUiXg8FiqUo0angjEkqxaNEZDbhKVBST4fn/XDVi7tyEeEtiOy4z2FuTauNGNscJ9vDVNOKtXLjHd4y7oDVR6R+2kIexDtWNaORDRi+bQoRXjjPx94PShuQXP+jT7Fioq+QxcZbr74TdImi+fHT7Vg41qQdk+ewsJ9rFjPq1Gvkjtg/Bqt0IRZNddBrkUpEjssJQTdeEVRYT7j9xeCCrz4rfi3Q7iGnFcKlUOSLkif6hGnPnsX/A5F3wVforL0Vl6OdTqOopL2UfsUS0tLUNFCnGG38fzxouDXGlRKhrXeDSi0jUi3sQh74MhFLjYigt2URTnwoPdFOE5NeDSQyG3BqpZTh+fDVXIg404PZkdlxaqS0+XI09Hr54z7XwlGqItrk+Md5Yy7o8WuD2IdqxpWbxn4+8NWXgguVSHauNVwj3SOWEt0VRqOpBUXHT7FjROYsJ7Cxgv/AFXi90UT3ORyORLYTXsuXsuXsuj7LkJovRei9F/wb+BQS8FX6Ky9HUKp1FJeyVXyqW0FEsLEWoaRTkLSTkKKXDzit8GLDzhLYW38d7lWVfoq/Rc/RUuLi4uGypUuLkXCkXIvRciqE+bLkXIuRchvYuRci5F8S5EXyLkXIuRciquLkXIcUKiHLkKXIvRei9F6K9Rd8F3wXfBc/wDUk+WxVlZejqOo6xVqzqOr2Ul7KS9jTrHmWv2Wv2Wv2WP/AGZb8kY8iz5ZZ8lvyW/Il1Mt+Sz/ANzLPks+SUdvssJqiHbQjp3MsVCMelFiLEWRLEKKuZZEsRYj9uI4pNEtNM/bRYixFpCPSiwsRYixFvUWIsRYixE4ci0sLCwtIwXMtLSwsQ48y1FiLEWIlFFqLUWotQ1yEimEcGLjQlsLB78KcVvjHCWK3wl4/wAU5Wxb/wA3n/E+NODIooURQoLdlCiKIoh+CiKIoiiKEduHIoiiKdRThQoPYj2rFd/9Yz7WLGO7xe8fvFkdsV3SK4S8ffBn7aEqDIdqxj3SxnNKUSp54sh2LFd7+sZ7ZQx/LGXjGWwtsJbCwkLBiw84rCWwsPOMcPy/xfqHSNP83n/E8WR2xW7xeLI7Y/msXsR7Viu/+uDFwn2sWMd5Yy/H7xZHtWK7pCwl4+8XsQ7VjHulgyaq4iiLiyHasV3vGfj7yhtj+eL3WM9hYSFhIWD3xW+DFhLCqKqpVFxcOQjmdRzI+f8AF+ol109f5vOLxliyO2K3xeLI7Y/ksWR7Vj+f9Yz7WLbGPdLGX4/eLIdqxXfL+sZ+PvF7Mh2rGPdLF7xxezI7LGPdLGXjKG2K7ni+5Yy8YvF4VK8y5FyLi4TKv0VZ1DqUZz9lH7KfJrSsoJci0tRahLB4PYjt/inK6Tf+b8li8ZCxjit8ZeMWR2x/JYsj2rH/ALn9Yy7WLbGO8sZ/j94sjtiu+WM/H3jLZkdljHuljLujktsY90sZeMWQ2xW741KleoqiqLkXIbLi74Lir9HM6jqOo5lOZaWlpRCRTBYt0R/1MCGopbDdD/knXwhcFJPg5WxqaWpqOfPbi+5YT2F/h1ZUg/8AO9ypVFUVGypXixYrFb4y8Ysjti91iyOy4qcZbPh+XCqKoqvZJq1ikqFyLkXouIvnLkXfBd8F3wXP0Sn1RXyVl6Ky9FZeisvR1EbqI6zrOs6/g6rmdZ1nUdfsldy5+TqOr2dXspL2NOm5OVsVz3Epey1+yj9lr9iTrLmWv2Ul7LZey2Xsa6lzKP2UfspL2UfsdfYq03KS9lJeykvZSXsSdWUfspL2Ufso/Y0/ZR+ykvZR+yj9kk6bkU6FvyW/Jb8lookVVssRYi1FFUoiiKIoeeNUhTi/J5/wsuSRHVd1KcNadFyIy6eZ+626RRO9U5nVWPPjOUp7GnYvHMhHnUl1chdEWS/Uai2NGb1IJsnbF1PBrypafp3W6vviu54Pdf4v1cqRiv8AO9yhq6nO2JpQdOZRFC0tRaWocS0tKUKfJaJFvyWlH7KP2U5lH7KP2Ufso/Y18lH7KP2Wv2Wv2Ufsivko/Za/ZSXs5+ynUuZR+y35Lfkt+S0iuRaay6DRh1IsRbzLS1FqLUSSoxLliu6WK6tRP54SdEQk3uuK2xXdLGXj7xlyTIdbrwUk+Md5feL7o4vYW2Md5Y+cZbC2x2RDbBbvHzx1VzTLImq5VpE07rerBcZTk5UieCUbnQhpW8LZynzJQbjRGlp2DSLeEqydERjQpwpQlC6NBfpl5dSfRG2JHT9nokqkI2riuFSqE6v/ABfq5V1Kev8AP54ODuqRkmS2IXecXx1nyoaa5Z+cXlHhVcX3LjVcY7cNaXOhorh+WMu1i2WMe+ZcuDdES12+VCP4/ZVElXCOy4tpCkmLvl/Rei/jL8fvHW9GmqRRqvlT2NWohsfuO6lCPnF98cZ9rFKpF8HP0QnWpH8vseo68iL5EtVJilXi5C1OdOEtRczSlXg5kW+DdaLhOsmTlbE0628xYrjqKb5IjyQo9dcGLioJDKc+NDzhOtCCojkVRchyRcXGpfemo1FLU8xKupzOo6vY0xRLS1FERX+LUldNv3/n88JOiNL2OaToPF8X1TJ6liotxakzTlVY+eMYtPck0iU2RdUT1HXkfutdyE6rhFrmV5VHdJmlXY1W7kRryrw1GyKZJ80LYc7UR1fZSuo2dsRa8q8xSq1jLZkdlxlKgtRi75CXULhSsqk+VPssuFNVtwj2ri+chLmLumKI1z4z/H7xa3ZHZE41oKHPnwXeyG8vvF/8kcdbsYtkLhS1EI0QtpGlsTdEOCpV7kO08obk5lKIgudTVfItdDTVEPYjESJbEI8IolznHhElqxjNRwWDFxqNlS5F6LivPYq/RWXo6jqOZR+y1+y0aFEoiiKZLB4SFt/h/USt0ZP+B54TVRLkOFXUeLFsSfIgiceslOCVEaKx/Lg5O7hKMpSNRcqEeSNp8zUdxo7D2NNt6j+yS6aEIcxKhrboX48JxqO8hDnV8E/ZKUXyRpx5mr2ipQ01zxlsyOy490hQF3SPy/vg9iKNWtFT2VlShCFOfFkO1cacF3Sxn4+8ZbMjsuMq+CEaEd5feL7ljPYS4tcOp1+yEaI1q8qEYuW/D8uDVeMthYS2FsVJTSIb1Y5IU4pC69S7wXF3wVYqnUdR1DTFH5LS0tLShQpw84xwePnBiw84N1f+L9fLphH+ypX/ADPF4sWxJCRKKZ+ykRx/Lhbz4zXBo1KI0dmPmjT01GT4U4PSbZSlMKcLE0LTRQaqftpC3WMtmR2XGnPgn1yORVFUXL2Ta5fZdEuj7L4+y+JciDoi8v8Ahl3wy74Ym6y5Fz9Fz/1Ln/qXP/Uk3y5eSr9F0v8AUul/qVn6JXUfIjfRHUdfwdfwdfwRu5nWdZ/6nwdZ1XI6zr+DrOsldQVx1nWdfs6vZBSoUl7KS9lJezqOqp1FJezq9lJexp+y35Lfkt+S35JLkKKLUWRLUNch6aluKKXF4vHzisGLB74rCWDI8XL0Jf4v1s66z+CpX/NIoUfso/ZR+x1OZ1HUdQ6irQ5lZFWVYqnMqyrKsq6lS74KlfgbKjkOTk9iNUti5+hN1Zc/RV+i5+i5+iTfLkVforL0Vl6Ky9FZeiNaFZeis/RWforL0VlVHUdXspL2Ufsa5PmRj0otLS1FiFFXMtRai1ei1eif4/ZQoURThHbGPdLGfj7xn2sWyxT7/shNS4VXD8ljPbKHbj+WEJNyY+LlThPbGQuLksvOPnBkcJCw84PYRUqi5ey5VL0fufBf8F0n4FedZbJ7sUaf4q0H+mjKTbkz/pdL5P8AptL1/mfDUlbE023Gr4PFi/xecZcJKTIQpxXnF+OCknthDbH8lj4Idqx/J4z8ffGvGHbiu9/XFuhcmT/H741XCXaytIo/eRGaltw1JWmjO677LaSHyRa5M034PzWMsW0Q7cV3cdR8jSW7H3LjLcRqPYWoOfPkV5DlUUnWjJS9GmpeTUl4GmiOP5YxwnsRKlUXIlJVFNF/wX/BdL0dZ1nWUn7LWWfJ+2ftosRRFF/B1Hy/gy4a+yIqkUXRTpUYsGRxWPnGRHFecZbol2s0O58FKL8jIYvujxnrJMhqRkSdEack4rnwlqpOhF14fk8HyROd0f8A+RpbM1NW0umnz246fasV/wAkiciDkmTVYmmkT8ffHV5zLWo7kW7ZGp2ROlQP065t8NVEeSYtiXay6ioaadT8/wCsZ7cJydSDfk1Ni12s0G7eeK7nxmxPkRdZcUufDW8FRImmJUQ1zILhJtTZ3EdyqLkXxLkXcy8v+C9+isvR1HWdfspL2WlhYWIsRaiiKfztaXNL+DIWxNc0PYb6n7qaTdvMW2DI8ZfqHfalUVacytKi1NacunY0p3Vr4JyUVVi/VJ7R5F1aM1Z2x5Gj+43XxwlqwRdGS5ESUrYtn/UylyiuZCcq2y3HsRlqS1Hb4I6s/wB+3xXg/wBSaete6UJ+DUeum/RoXLwSfSRr+6vsZDF90eE3SLNCN0234J9LVD9RsRhbCMq8yLqkyWlL92q98V/yP6wfNE7lSNPJFURPSUmn6HGvBmn24/nMpIjHgv8AkJ+PvhN0QtO/mLS+RrpZS6CQtAjGleDVSC5P742rh/3P6xn4++H5cZroZprljHeXGceEeUiqKouj7L4jlzLl6L/gvfoufoabEplJ+z9qu4tMsRYixFiLUUKIp/8ALNSVdRi/gM24rTgnWnMpRkdsGR4PY/Tw5ylwkq1P3YaWlTz6P00ZKFZbs/Uab1IUQ9NaejaiCoomouRoyqvoZLk+ZowcYNvyI1v+OR+khycxc9d/A9istNySW5oQa1E2S7WaWjK+slsQX/qVJ+Ps19kQVII1O00oKlRkcZbx4az5Ef3IbLchCTd0jWhdEhHUkkhKiSwXe8dTbhVFUXL2OSISVpcvZfH2XxP3IikrmxyifuRHNCaqSdafZf8AA51lSgp/+0vf+o5NrYTklsXy/wBS6Xoun6Kz9CvRdP0XT9F0/RWfopOtSsyszrOscZMpMpMpP2Un7LZPyWzXk6/ZSfspP2Wy9lj9lsvZY/ZZ8n7aP20WIsRYi1FChQp/85nK2LfwJkf4LRRorIul6Kv0VZc/Rf8ABf8ABd8ClQv+C4utfJF5XmW6d1beZei9DlFlUTpLyadsUXI6KjkhSRdEuiRtjUvRVXVKr9wuRdETiiUkSaci9DlEjJIvRFl6P3EfufBf8DbrsOT9DcpPYrL0VmdYlJFJ+yk/ZSXstl7LH7LH7LPks+T9v5P20fto/bR+2j9uJYixFiLUWotRRFqKIoihTgopf/TtSpUqVKiP1erysIkRfx6FChQoUKFChQoi1FqLUWotRai1FqLUWotRai1FqLUWotRaiiLV6LUWotRRFCiKIp/9bVKlSpUqV/xLc/Ua60ofPgc3J1IEBf8A2sqVKlSpX+Fra0dGFX/Rqa09SblJkSDIC/8AuH+o1Jz1Hc+ESBp8Ef/EACsQAAIBAwQCAwEBAQADAAMAAAABESAhMRBRYXFBoTCBsUCRwVBg8HDR4f/aAAgBAQABPyH5cBWZO47s7sfMTBDSW1YiJnIXc4DgOEjsKrkTiIbEISX+CBbI4GTPKIR4dkaQQLyuozw5YVJcwvrB7FCH+tOLpzMlLMLGjN5x6H8hvfvrOmLoKhn7U50zP1p/FU1PkFilUjMdEjWXYqVn1TkMFDPGlrGBJJOipPDswozdHrUOnseHVXX8FYGWyRjpaRsTMiLZSxyv9aoS8qDTQY1+wnQvxpzl2RwQmn6C1Z1gDTtMbmeyHRcxhhdZDmTZsbI8ZA4QeEIXtona1b26Trm0k6PVZbA8upa/4R0iZLYtEhyyyq50S+w8GOr4TySKTzF1ovZA6Snpgu6s+9OLur9KXCaDP1aT8CepknTOLC+FNjdjGToxHj2KiRU2QwVDq4sWKHQpJM+w1HrGKnLtSvzS8ehfLOjCwNDsVKctQ8nkIxkmKR2btMiSR5b4woZ+lP46L5eWRTrw08Ra28BSk86//GrEA5D1X/xlm0ZY1oKX+B9HWzgNCl3hJ25ZPXKXLgIdBWmShQubRNdDWaYsSJmalnFSka0y9fRYW6aLZxNmNvg9FexpIdGWuC7FTn3GLX9Kl9qktY+RUxv99HrnMF8JY/Jh0nX9BUtTZjChioPQWNFozLtROkVGcwVDMX3Q9Mhi0V36/h4IgNCmD3bga3BcaqSUL5rIt5r1AeXdDM+1OToeCS/Ac8tJ3L5Uu3QznqEZm3lwkL4avrsJ9iTYrtYx2kMnmIJNGUN65QsNRqoHG5ZeDU9p04PWIaENSYdQvwIY2GiLVg7WuLGmUxdab9yaOr/oKnPvT+lX6U50zEt2p9kVDM+4qRY+IYsx059hUOpZDClU8BYoZ50vAVMqGYqHTH/EuFLkgZG3pYhOYcI8u6GZdqV+TNhOjSG/4QF0B2JSW3+LRAayGd7MJJ0aw+JJKJGx0UCG5yENxR8xzHOcxAyJJLOU5TkOYjfwcpynIco88MhLnIc5zjBNJ6sBJTBXtFAgcTEJBHY7CPJDkiRfYjsyOzI7EdmXex2HYdWdhf5DIdvJLcdxIS3HhPNjkUk8NKzzTTpBwJ7TiOE4DgGkJ2aJ2aLLI0g+mnuRuQkkRuO53I3m6EkOU5CNxARRQ5I36gRuLq5yahcpuSN53O530JGzO9G/OnMfdGYbi5RZEidXnJM7CQzi3z/BiTHBOwnYTsGFqIagMUgkckbqAM+XfXbmHMJ+R2Etx2O4h8nY7nZkN2Nd2TSI6hAXqTwnCI+04DjOE4Rw4ISxwnCcJwEP8nAcBwHATliEscRxHEQ2FHDYgQ2ICqBJEIhEIgVT2IIRCIQij7IRAhEIhCr/AEQiEQQhCihmbvSCNEpTP0pxXaEQRoxbqfWMXxjPtV8UMyU5IVGDMFRUZd6chgvhWH8XWKWFDPLunN/F8O6cDH8T92l4MdPj1TkMHxf9FV7tOK7VX6qc6Zn6v4mZh2px6BUMzdPrGL4kzPvVVDM33TgpxZjTk+NSoydGChobox/w8KMTGhnl3QzJT4U+HdOBgodWypngw0+HVOQwU/mp/ZCp92nB2qX8Ypmbt0+7SzB9unDopZm6HpsKXTPB+1VUM8u6cNODMaGfpS8eqf0pa8woymK/hLFPFQzy7pyfxGAqMDD8SypmYKfydOQxdfE8BY+I4LtCoZh8QDP2p9h1fpT+SlmWp6ZzChnjSzy7pyQqHU8fijwY0/8AHxT/ALFR4rkX8GJgqMKZnl3QzJS6oVGAtvxqFQzBT+TpwZg+LYixQ6p4d0s/SiT3an6E6To2rJI2qCUSh1JSiUSiVuNodSyBAgStxlIRBKOY5iJ6ByHMcxyD3hD/AE5DkOU5BMogR3OQ5hkvQ5DkOQlXHIPcOQ5hAlOQ5jkE7i4yR31ppuJJs5jmI7nINIkSJzHMKkRI7nMR3GlAv4SjycmoNGJghpPaZF+GQzYjszozuOwZ4E9x3EtxPeTjbUTk6FkYpXlg4HitqBZTaxIUKHhidonYOFE7UedqPoTxpB+p9SI+tH1PqfQtiRVzuRvGtxyGTEbjl1RSGRUpC6ZdSlqpEvzVNPHub+dcOSLdDZu8khPcT3E9xMb47DuO4xyLfvOzO47Dsxpu9NDkjuRICNlHQhpNRdxhAhpJgjAmD2Di0I6TiOA4R7QiCBwHAcQiVoiR20GS9LiOLQhouA4DgEETgODQawIEDgOIgJloQOA4RIYEdDiIRIkCBFCXr/DgIoRCIbEIaQliEQQho8yCCNMlLwPBkpEFrjTgY9IErmsf8yKln1Uup8eqcxg+MSp9mnBdKWefdPtEkjYg8GATof66J6swUtfQZOjP0oYuqdV+KWY0vKpeDChidPNC0emLMVDMxOrPMVCy6pXq/hwMFrJgPYSTo03PLvWR1/wE0RqMpi0KTPwRDiOBigmjwbceGB41xAleN3krdjExOIZiKlh0dk2XJs6egqfzU4GOn8qchg+MCxT71OC7VLMH3T7miHo8GKlvZQx4HsJ0YmewIeiGZ9qf0R4MharP50meDBU+YnTloxGQwoZg6GZ9hasyef5hiLC0dJ9wmV3Ip/yIu/jKJGsiYMQUeIY8D8W4fRDowXO9tCS2HhCzMd0X/wDxEIxYpJSJDmnPlCtrQzcCT8InA0+YBSzwoMF5JJgd0haSRAjy0CpGN1dk31wMWneU7UDPQpypMDHT+TpyGP4wLCoZ7nxBmPZT7Gi0gyVT03QzB6xa+2xfEv0R4Ivq6tgzHQxuiY8MwUMWRgT1wasRjSwpmefYtWe5uh4PNz/DgYLSXuprOxAkyKWjweJn4Hm8OTA7K40KR4BYRO4soJiDd4jAotdvLPBQeFa0Enk3o3+IUCEhqURYanumccc0+3yfIoqUvOhCvoC1c7trgYNEEy3H+CVGEmnqU/gqfpT+TpyGOn0qlYp92nw6Usw7KfYpzVRr/dRBizHT7NLZ+lPj2vjGLMdDPHql4Rgo8GToZ/zqxHj3SzC2UPZmChoTLVcUNDiwv8OBgqMB0JRYsOB1clEolbkoTRlErclErchkJ3ENzkOQVGSFk5jmOYRGRSyOY50chzEgcpynKcp/oHJouXQPcEKByHOc5zjWbg5TmOU5SIxUNLn1xMnxTGWLCSKEWCh7juO47hDjshs9KHJ2EdmKWHkjsyOzI7iO4nfDszsIbiG7SSp3Ea2O07CW8luJxceCe8nvJ7zkjXmMhbQ87VtsOnVlgZE7U+2u/gWwcTVLhCc5wo4RwHCGjgtKxwonaidiJ4i+4niTwPodEW7kKJ2IniPqTxMxPEkp4H10H1J4H1PqXkfQ+p9T6l1MFo+pHA7ItOSKrkbyCgotwt2hDpkZgv4cBWZZ3HcQ3Y4LIlojyQ3ZDdjURpR1hJrOA4RoQ4jhOE4RBYFsHGcZxjV4HFscJxnGcIn6jhOM4ThFMBxHAcBwD2BcHAcBxHAQo9ENjgOA4BVKwqgQIbENiGwiCGxHYhsQ2EgJWIbENiFsNIVHCIENiAuO0QiBAhDQvsIRCIRC0EEIhaYPQQiEQQeNLJ0epT+qlmL7p8O/jWboxEU1pGmNJnn3Ss6XlVGFGNLx7pzUL+HAwVGJioZ+lOTqn2Kc5gqMDBT6C+IM/Snx6pyHpUOsaxT79OC7pZi+6fZp9I9ahnhSzdHoU+k6WYPunLtS6pnMFOWqqHUWdLxpxS5FRklyL4Rd/CswMFGJgoZ590/hTgFRmMFQ8GOnL18QZ+lPh1TlPWodclin3qfwUswfdP7qfWPWoYsKWTo9Cl+t0s/anKq9inIY/EvDsVGBhQzLS/zVF8CZ49Uq7vZfxsFTxUM/ah/GDMYOqHV+lT+nxl+inKY6GetTkMF8T/MKhjS3dP7afSPSodV6B6VPjSfx8Ma/anOYUOoZBUYMwoZm6f8AiqKj/mhid9DMn5/hZgLCoxMVQzz7pX4odQzGDqjAxU+lUFQz9KXTZB/8qGetTlMHxwLSdGZ+3rJI/sJRJOmYZRJRYlDaE1LolbkrchuQ3HUyIuchDchuQJUBK3JRK3IbjaHQhuR3IbkNxQQ3OYjucg0ET2OQ5jkOQdNZFvHIcpyj3hdxbpynKcojMLcOU5dFMXISucpynOPc03Ic5yHMJZnMcpz6TS8iRIcnQurHRnVnVj4suOx1J7Ew3Yw/wsxJ4E7ETtRO1FkskidqJ4j6mc+p9T6H1FwH1PofU+pgI3EGeJ9C0JFcjcjsjuhqOUJBDIKCjeQSl30EawVrL8ioQAcQi5pQgayDloHksIylxcplxpPOq3NHzuMjI5ByCW4nvPMMmJ7iW8nuLCv5O4luO47C3yJlkhuIbjsyO7HYzuQ3Z2Z2ZHdi0zksiG7IETsEs1So3iBRKkHVpsqaOIh0gBqtUuI4dBye9T4ziFexRHGcZxDgwLOA4DhOAcSxwHCcJwkLAmCGxwHENdhEETiOI4hAQ2OAhsQthJTIECENC3ZBBAgtqMgsL/PZhS89FozJWG4QuMPRpixYVDMNOTqhjWXapZ+1P4OnMYqVn0MbXOYqWv2pfHek6s/Qmhv8nT6R6VDFUJgqcnSnwzB8XZ590+HYqMDCnxqKhmFDPOh0xiWowMNH6GH8LrlgkkkxG9idWZuqwexLLQEbetM5gowMVElxFMYpwXTWdf1ZOrH6XpI8thDsuNPzAohAYyDxskSyya0klyE0ZTBUM9mnw6Hin9NFpJ6TE9ZMvR6VDPSVOUWKGP8A5LSSdMWYxi0Y/tpZ5905dqcTB8eqMR7aSTUZ5PmjEwUPZmKi9ryL+F1cTCjAx0WjM3Wr0ZMRYYHToFKQwoRtDdHpDNl8EUq1vLV4MFCcpmwtYkiGx5Cf2UPQ7JsimBTeX53p/Qei09J6s+Ivdi2WwRAthkOEG+DotC/5rR2fsk0ZtzZXLFJJte9GUwUM93VaYLtCxQz96fWdPpHrUM9ZTmFihmV0Jj19A9Sn0XSzy7qaozGIdDKo8RUZKeHxCzGLVmAsUP8AinoVGJgqSFozN1q9HpQFJiLO+UyIfgMx4RnKTsL6A61ZhoSTJyRciLYt5UE/UB6mP/3fyPcobZIfbisFVsqx1Qz99FdU4m5BbdRktkUB/WgRp03HAntvScOUiIMEVLmMFDq+K7QsUOo9B0+kepT6Sm77oVDE/wB0RR6R6VPpOl6yo6owZiqIPMVGWqdGsY0ZDFQ9mYiSBARH2JIycxyDEqewtw5TlOQdMfxMbS5dXbEJUlR7AELi9qkgkTav3ko0hoLn0GCbAlIWZsD5O/SYJTJ3Hed+hGTFBoIPDI3OwU0o3RZzWxOtRGkCA+QQcg7ByYQOw7COzENOzIVsNihyPDvSIbMv8M4/B0Z3HcT3D2EJSP7wOk2VxK3ktaybhZfBUHrdLeBegPosS4dUil/1c2vCJ2I4BOxE7ETXJCt8E7UTsQ34pE7EY3Mk7ETsRwjgEnZDQQcInaOFHAJj6J2aLhaFoYMQjgRwonYidiHtJPofQ+h9Cw5aEt53R2R3RG9ETXEt5G5EbBG0JJCKJe+aFHovJOeQg5IckluG+4sZYljyRIaSLHAcRwD2yESOxDYhsQ2F/wBf4mZoghELYhCqBFBAhsQ2EaCJEiNIRTIRCIEIat0Q2IEBFMRAhDTYhDSEsIIRCIQv+aIRAhsQhVC6EEEIhEIRf7ZCIERJD/UhEIhEIaUMRRIIIIIKCBGmQwVD1sa4rpS8GGl+xT6Rj6p9FU/oqIGj3qfQMHxGBjIFr4dU4ioZkp8afAWKbGjx7Fqxu0VH/NPk+f48VOJh8KZn+IzmDrR6Mw0+kqcemln6fEcGYafClkMFDPZpwXSl4q0/6dJGSP8A5HqltZPURInrgu1Sz3KhgtJ1/wCacDDT/wAU4ipyfdP/ABTkhUePYqM+1D0LWaQ8fyOa7pxF8IfxwymCodT6ip/JV+nxHEx0+NL1j1KGezT+SnB1TxpekekRcsHo/wDiqUlLpQ9M6TMLCHQs+qcnWqev/FOAhOjzJ1YqWCnJCJ0Y1lKy9Frn2osfr+TZKqsUYUjqDps5g6oZ+vxTFdqrB9/EcDHT4dU5jFT71OHQKjF0hk2U/WPWI1aPxaLXw7oei3pP0FT6FOQxdUrLqnxFQzCh/GjoOkx51kZgSSShEzFfx5LWdGE1pOmNIzNS6TBmCoeD9qfUJoxXdT2fesiVXKRMUnWRh1QZNvRKIbnIc5OXIS5xjmOYe8IynMc5znOKcX8nMcpynOOPIotznOc5znHNDmOfRcIaa5BVzlOQ5x7osmpNiuzOc5S070eQ5TnOcSXYcpzHKcpEV/It05zlOU5RTbnMcpynGJS5GVzl0XKcokAt85znOQtoFQUMrZEjszqzoy87HQ7juHwYm8KYStloOETsR9BKYjdqM4A+MnMJbie4cFlloR3ete4LH8ea0d2d2d2PmdjuzsdmchYydmdjsHzYptkd2QqZZDBjsMdzszuOw7CNZOx2ZPcdw7MixknuJbiW4luGZie4nvJbie4bGfJLcluJbiW4b7mTs7snuye4mavgff5HyOzO7O7O4sRIkdKEOUQ1jhEGhEBY4zgOM4z7ycBxnGcYslbwOA4zjOEcWBDQ4DgOA4hrFDgOA4ThEp7CgwcBwHEPaEfcXcvB4E4jiFRQ2I7HEcRwCIfbI7HEcRxCYVvA4jgOA4B7Qoo7HAcBxiE1hMHAcJxD2BBQIbHAcAqkQiEQIF6HgZCGXYgZgPNbSJYggSu1gdKZdPdGQS1GQwow+Rfx5rVQ7GiXQVGJiqGNoPDCW0eNL3CoY/tT+CmxLtaJwbEzD0SksTONxuE2MnIbv+sRwCFEI8I0bSErZgNRZaOBbKPQPUp93RtC0/NThSmTF5ecE50ZJckAYtUjI/8AuQ1O7EWi8O4GQNN6c3bpdAyelyJJQ9G0EcoJMoqGZ99ZUiEJ7AgssalMk7HjSKLUTU3xo1mWQ7sZOozfdDPLujCkxXYqPFyKh3ThC/jwDQi4DQxc7BLLYhuklITMMYhiEdVaWEbY0qYgwFV82lgQGPUI8D1eYybD0msLcJpDJUK0D96fTRC2kIrz9F4GIROZRjmBVwR3cdt+UESjLAl/Ze64HuHAhl/uKm8sWGvA1sIkW1YkiRhTsUg9mMoRJFkhHPqPSoZ7hAQ9G2iBz2FwJlI7d5lJL6KUkLcvOtmjDGa0JpFxkfW+jbQibeWyxT/T/wADSJHQtx4JKMyW52ToZk7dDpNec+dIeHYvJLL8tLRCHmRHcyYgdstK/QWKGfpQZefA7A1uGbkZ9mPAjayGKJQkgcDAMLopCQpLZNjD0NCbIClpgYUZDBTF8Kvb9fyYSCBAINEvgmyGq82HWQh9jJy9xSUtFiz0QiGTIMcyBTZCoRiXYjRZJSH4JxYD7x4GJD6BGQtx2P1oZ6RcMgVlt+Vo7cDXdIr3BJy5msYkOWY1HDlzzouduR4RK/GB0z0eD9HRiJHUx4vOAgWKN/gelQz2i6CGlshGbVoEFixYkhWFJX0YS4ZfSZsFA4gRkejW5RPNiG+j0wP4Qga4GfTtL94yJS03mb0Mb3et0G12+R9OciSssi7YzJeBkhnyLAi2EHBJcmC7FQzB96tiLgElOhz5sP7hYSM2hSCUaOjDFuKUNDMkTwJdxdWhHYWF3BYNHuMFNhQ8aGL8USeT3f8AJhIps8D01V8CJKwhkxaXhi0Vm2HgayZDAW96XFq4qzrKSHEyQAQQFrYvIknyO7uxOrkw0+siBmJI51jH3Sz9fiDA/Whn5DZlETBJix+hv8qHo41hCKaBrkQkjENhEaPSSRKFQFhNYGKoAhIWjSedGeG425QzJ3rgCoD3aITIyMtzq1KEoH9xUYGKn/imKgTRJDccswLEhZGGUk8gnMrYIz4I1HLoraggWDsJ7jkj0BaBTxO6LxG4jUOZe5PcS3E9wkNcSP5CUIOBabhaJvNC2KMK0MCarFNtqE2HqitDm7FP/bt+KIa97p3axObpeackltA6CXgeWRLeYXZELHknAnvJbydrx7kuoRzdbuSO27fNObrjDY15OFE7ETsR9THOYOyI2tN/8USUsio0ONVtMi6p96RznQ+TobkyHvxZcjlnLOecwVyTHJOccs5gk95FFmcg5BzjkjW72OYc05pzRWXyE5DmnPOaNozGuaZHNHC7yVMzmFxM76fnnM0jCzOF6OwiXIOec0QuQOG7DoHJOZoE94tw7CG4huyO7EShan8QgsC2ji0nAQRMYIbEdiGxH3SyVDEu6GXJvmhhi/kwVVSw0lDGeQqFT/bSCCDAxaxo3FYhsiCwZDyFkfusaM/al0KKGZu6Gfi9bgiyRg9I9TRida/DSzFoxDeGxpanmFih/GAMwfEGfp8Nm49xjodSwaqWJ08TJmGemA8U+TCjILVmEWrpvCZYlFyORfyYNGi8kp+dLkt3JshMnRjAbgmHRiy6UVbVnBZE6N/ppJIqJyTXg3YiJxE01KwWFB5sHSSxtCWYE5HoTMSSO0Y4QlG5Nm1Zd9qbJh3wE08MarIsBjcC7rkVH1Jku4nWQwS48s9Y9TVaPEiRldWwMh8CwW/UJjVQGiUvA8YE63kxDVrl2BBbhPptLbLlrnMNVTCzv8Hs/Ijghp0bG1CY7LQwHkSchKJItkXoknVn6UKkIMaCJCyOKZZdBPbwPJwGXSDbJeisRKSF2sSRD1utJDUmjVZEsl9MpqSyPvYgaNEvbHaW8snLFomtWtE9WLMVDHVjjCjP0F/Jg0khgWENpZIwxdUWowHEJMI+BRXNOTrTKkFNiyGN5fkciNyKTDlbjzoyT5cCK14RIym34HuthInEIZwI2ssi/VvGkd5sCKmZXIwIWYx2t5L6sy76taf6AqQWGbQZkSUW5DdiUlNM4ZsC2F9iIM3R6lKSfMFh3gqdosDAWVkVyDEFhyEv60WO6IxD0JGA9QJWaV246WwmM/QWqN+yIHuSfLeqri0zRaSGJRbWO3gifbQFUhkAtGPFOswILG2jQt4HpCDgeGwKyEiHnHlGPCjWxqWkjIN+Yyno5IIK5GipR4o1XZKKzVkMZB47AiWruVqxLti1wMNWXtaySXM/lwaT+BYQ8BOCUpYwMS6BLj/Q858GLp9IlZluFbISA4h7cEDzvp4S4ko4HVYQga4t9FOTR0GRiSVvA3VaFn4El0WSwHXc6mZ96HgWq5IbVYhy8l8GXkRBiX6kaRHstcfYp0CM/R6VNy76JcV0vSMcBKEJCGk0R+BEWoEtKTdvSE+ppEktf0VCdPT7iFlqFpTiuhUigowWnTRYFI3JG9DMVCJ5EL6aZBEPjXwHgTrsCQhKwxW5jVDEjXCeuUhWFcGjE4ZEIuchzD3USjk5Tk0muzGiW/U99ouh9CN4wSZaSW47MapCR/KzRHT5TdiSoFvHKchyG6FFku8nIciHuCr9nIchDchvorkIbnITuGU9heBkjDchuMoFiwOEsl6JJRIon0WGsgtsSJRASiUSiUNoVN3kgQ3I7i7ExQuw5TkOU5zmLrvW+wk8M8adx3HcT3jWwSQT3k95Ped4mQJ7yW8keaNapDLbd1WC/wDwbwtA9b/Ycqlf+zvyJI83Q8kZoBzdDdLLE6DySY5I2dongbbyW4b7xtuIcCe4lvGTmieVqg2yKGhgHDhFgngfU+p3QlPIluo17ZyT3Ow7sjuy9PwcJwnGcQogQiCCQlqMqVnRmFhP5ckQIEdjiEEdjiOA4SJgRcRwHANRF+ziOI4x7IsOI4DiOMWAQklHGcYwjKahJKkqS0jSBPaJxnEXpFqO0cRwHEcBAVfshEIhED/YggjTMesQRqvYjSNPyaRrixP8SCCBnqqnD7QqcOyn3vjTw6pxZiR8K8OxUYGNDpum6WBjRh8Iy6XzRgC/lwU+NVYoepasgtJGK/ZTsDFq9GvpyCp/BT4dqln6Uv8ASnMelQxoBUfk1Tpm6p7H/wAUTpIzBdoVOPZS/wBacHUP+SaMWeOrpk6PjunAwodJ0msYkk6MMCdWw5ESTUPZmAnV36IX8rwp8acRYpYvvRaslPsU4mLRPSRr6JMotGJkn5NJJ0/dUs9wmhv2U4s9AkZJJ7wmJ6/g1SJmQ9Wk/oFo86WJdoVMzdidWNS5uhqRv11nRrjBC1M9inMJ2oxMKGszAmjjQ1xhR4qnALVnn3Q8mkyECZDce8XM5/mePxcBYoZjrI6Qj2KcWY6GIpm/xMFQ1Vcn0KhmRKj9tOLMFP49Fr+fRkCQ13R6dDPXU49AqGH9mPVnpunN0ejonozz6JJ0nRYLSdGftVliksaMQ1xiLV7GGrY5GCG5yHIJhqT2GdgneY5urkDBZI36Kbkw2Zgl0uMaxGmplhLksPSbZJSyV4JUiUxCUic/M8PgzpiLFDMfinsEkk6YsxU/4Cp9AwU/mpu+6FQzLtrY5B1lxJzHGOIeH2EZ3FUucI4RwjhGVbHGOMcY4RjH4UgQNp3FqQ79DtJxB+6WpcxyDkRuLdOQ5C5Em7FrPyzn01jJIHMbJnLQAMw8GbeDlOQ4QxKS58HIcY5DnPKCiycpz6Zx5FFk5aN4wZDZkNmdWdhhsQKAkg4OAnifU7C7hA5B2HdjSAtA4NJJgQIRCIy6LEWRba9Leu3kiRcCJh7EYrpFqAJQ8I8SJmM1EpEmJA5laWYE/wCYsD65izXCyLb5klCe7J7jmaRm5G4WoQflYluO53O6HyQm87ofU+h9S6PqTwJ4jWlwNzRPAnYidiJ2IeN0i0gnaidqOET5AruME7ETtG1EYhDyWRwtCeB9T6iZhG1Qv/8AAHJOST3ncNd2InvQJxjSiNzhOMj8ErHkNGPgQ7Xg4tduMYlsdWm4zjFrHwOI4DiOJCKVvAj6CBAhsNIuMYSEUohsQ2IbCrxENiGxwHANNiIZxHAcRwESWxwHAcRxIRK14FQscRwnAPaMAOI4DiOEhYFtHEcBxoewK8CGxAgQi0xEEEGSFRmhUJdCptwhphqHm9UZESEMzoRkY5uzOCEqMDaPe8L5fJfpRh5sOWkeDkkZEvI5tmDJHQcs/AhfkSC4TyWOyxAlix83hQ2PcSprFDMfh2c/alLC2jaV2LEeqz61SvyLaT0jBRiX5q2f6q9ylf8AdkDQzA4MlLMx61El/wChFJWO4tX9dDidxQB3SwevSez0XwISU6o1bGjqwGYbcBOw1TsFDGyIjnR+gqHgw0NpEYKSVRgEhWGuEWrYy0NOGhaMyDEkeS6Mk7mbD2E9I4Mj78jBpBZFE2louXLqklt508u9IWjuvFCXN6JaRArQLGX8B4axIQtz8hIUS9V50wpOCRCmSJ4H8YepAe4saFIukeAxrmfeFOpdiYUlmTFQ8l2LpLFmiGBhoElQNgK50X40bTLFJy09YxdaxBtJEiksVk0M/wBCIpE1NgrpMZ7tLf7MxEoZgi/Bl68szHoU/UUYYlZGrzJBmS0/Pq7Rz/U/ymevSl+kxuTPev5tcJo8UyZqCQm3geTNIWFQyxix10NP2JBkiuMXsyBKPoxjodMDegVpuySSSEsbkWGLFbEWsjchaYaO4Q1UhCkhhgLSGn9Hghab+DvaFKFwILJznYR2ZeKJWwEISQ1iQiXz+GjHkCSSESNZGrAuPIgniTiSF6i5YhFXgLCMWX/egm3FGVFxqpLWhDsiXQiREWnZElBKQniBVDtdGDMOiMzBPRaCLeDwPkRl6PSoL0HYrwj7SjN9CwSwSzLRnu0+0/whD35EjAkJIzdHrU/4aJ3MMeuuPXq0moYlIRLsejQx76hBIVFSSjGNraOlOYPasiGTUqmYKqhIRasS/YSSB5SxjSBDE9M9LSBG4Ak2qMZhbwOAMaQtMusYicvA2bSFBDc5CJkSlxNNJMRdK5DcMtAmoehzC6Eb9QPNJ3ZE4hNhIQ2IQ8U0awL5/HW9Oim1bVokC1hEyjAuPyXXIer6cBTYjS/MFr0ykmBz0ZSe+OQhVC+w5TJgYdEJDEvlp4daSI9iBLbnrHraxhzuDE3GqLSrbCcjPep9nWR6Zj1qGWXoShUYdFCUueRU9yHgpW5K3OQbQyV/MEixK3JW4y+0vZEtCYruJG7UWUOBsJXgglCJRJKMpgtZGyfsbFQxNIKBnNh3ZGU7kPA4RwtJJ5EsiCQ4GQ3FpyGtmFoxO1CmN2gRwJ0yTLJDfQ4zZEXCC7EYREEWiVGSi1GPwWvFhP52cDio0DecHQ6HQ6MmQrMESOk0FJazznMIQc5znOc4qexzHOc5B5GxZEochznOc4v8uk3jLsx/MIkLSaHedhwMWePB3Hcd5muGNpChxoJ2Inxg+gmaRuI1ne7DknJOaNgN0siVbskUt5PeW+RPf2J7yQS3nYQZPASbsvd8kK3LgNdnhC3N5Wv2saOM7HEcJwlmIIx30dyJLR7BpDyId0huzmZ3HcJJrZUD3/IjyYljJDdkd2Q3ZHdkxuTuzuyG7ORiIlosafGJKy8ijwcZwnGKTWFQQ2IRCHgxowMdYzOhjRgEQWuWhmFHgLFGSjxcix8PAi+bxpeSCCNUIggQhBEEDgIbENhEUDiOA4hVPbS4jiOIaRgg0IWxGw4DgIR6IEIhsQ2EUuhP8CEQiFWPTMFo0R8jzAx0M/MKh+fRJUF8TgYPo9Cn8FKge5GBKV1wZ6pJJOnpqcHapZi+6Xj1Tl2IozmKkxowMKHwjD4Lp2MY0OgzCjPT4oTd/HeVVWKMPjFmu6cTDT+DpzdHq0MyCRBtPRZguviWVJg6Yz8eha3/AFi1Y13R6FDPfWrHPvZYE1wfR6es6eoqcOiln7uny6+L/oYUYmFHhSwioyUPYxobwIklHMLzDmIHRljDGaWCdp9DuK5bn4puB83jTlUWPiGanJd04a8k6P8AanBnqUMQLRiY3+Bg6+IZ0uDpDPXoM/GLVnoHo0M91Ek6NHvio9Q9Kn8VP7Usw/O14uRUeIqMkIklENyA5NKPI7MMdtouEngSlnJGkp7iE2SZHcjpcAshELTx7I1eG+M7m+Z0mSpaxgqGYUMe6lr9vjzpMGepQxUjf4mDr4llT4Mx0M9dU/jp9Y9Khnuqn2aGPDMWrkln4qcu1LWZhobGOUSiBDcaefgW8cxzHMJbRDZ6D4aRtmtTsRvJvI7aIkSEECFo4jVbR5QhzY0KbiO4QkiU7cAkLTGMeBTwxLxa4FDf6EhfDJ+PneEI7nMcxHcRJAhuSiUYjWWk6Mx0nXLTl2pw+OWDH0m0lLMcvT/kk5DkOIWg/BAX8HPp8DI7MfNI7yW4lvOSMcW9IVJuLsiDETsR9D6HcJfTR2RG9HdCXkgvjYHcgo0vPFt6loQwlLnLOecs70Ry6KS0XMo9aKnwFipGsZlQj0OcqSikgEkuS3EtxLcd2XH3SMJTTiOI4iGxGiB5A2hXEqms0NYyTGVax4ejImuNasZ0Dsi0szld5E7E3JhLZES7/QhsRwS4CDBeUQsqGZLfYmULXA9W8NVzKL1fFzC5J+ZLCA72GKSHENSGhDSQKwgNbmxI8Dscp2EtzmHMFvayc45owcw5hyzlj3o2OxzTlj3ol5OMrmE95Pcdg+TFxIbsSmU5LIvC0Ir6kDiOA4DCvDFQ6IRGv5K50uZLwJaMxUM/FT+elkw9i2dW8DsjDMmsP305ujBQz36XhS1xipmRi5MlfAlq4N5FAnBuURJ5augifYNMR2ECPKTwx2ZZExoI17sa8CRMwS7IQpSGxBBBjZQKgaDIxdnezygpMCYNGzEkgcwpsfFO7ECfzPAYs0LSWAlKCFRVLGlgHXjFSqDqMxfejRl6yGSR7hIzHpNH4IVOjw6p9VnqU/gIPJJMPYVwjJNOzxIstCVW0iSShaPFGQSzDM9cNPk6E20z6aWlc1chfA5KnkIQpuyUZJGSyTPvS/t1bgks6xKQiTRGAy8ZsLYXNW8kGIsnlEiESE2kpGEGq9LkDzcjwSAVkNGWEMSllneHn3Tlq8gsSSmM7hVmJ0LNqkQwtfAFBO45jk0iU6sliyDbIm4H1PqQETJayyOlF4Ip+HCGbmkn5njoprEcPcxQ3VMBYWihHIkNE9OaU9LUo8kIS3ZnLBAsRgbfyCpkMSy8ji4aRNx4SFUIv6SVkMKWMaEzD0QCSGN2WO1MUXPBIQFPcU+selqhSTdH5SS7cSB4FOZW8FptgmubOpavA/8Ahq/UiCSJfQjfJ1XgWNPw057Y9Ida8DYvRGJVF+3VqXo1ojAkWjumX/OhTfeyDwG29HSwg2UEWB3D0RitL1xpk5QMy8kRnLCbPA1Fq2WpgMvV4p4GGkohuJEu+sdWN9SSdh2Qk7zouQdiFCo0uIhsOJIII086M0qMC1Ph3aiF9j+d4aORJbkUCJqMTEROecRc/JEWWPhulfjTHHgg7xJFFsLChqR4G1sjw7DwzORBc8CZxZZBcn50yCzEDyOUIb7kAgy2NeN4LkS0+oevq5YQtNmNwi766MxAhWVlAggRnM64OjQ0/NT+On0j0tbYy3mqMvulU3FpLWTRQIsS0KxERzOEeJCE5CUDSPByJCoa4jAhuIM3GUmXIGS6HA19hgS7MfMPaG2k6CW43gzcdtMRoJSJAik6lULOh4RjQru6IlC+GHcP+AZr43EOaIkJbiEkSqVo82siFgQ8oRaSyI5GLIhwaQGrGQGDzq1IoDFehIswQWmIEFT+gN/lqoyJQqSfCJ4nIciOEeV8DkRxNA9wcTIVOSGz1GmX1oc05ByjlEbgUcLiDXyYNiJ2onzQe3RQt7XZPAniTsE7UP8AxH0Oo+h9S8wJHKI3IjcRtEbRhH51Q4RG9EeUjdoo0LbciW8luOw7iERtLiOMVITIKISIWpYoyFQwtWZOh7MxoaUFqzN0eCFQxb51ktcyP4UQ/wAWfwCSJt6Akm8S3nbUs6adpwHCcI1xO04TjOI2JPYkJ7Ew6MCbYhV0TRBl0GJWxSKRJ5KlJg/i0D1CXghTyyNQtnQPOeDuzuzeOEwg4zh0UIRLDKkCGxwENhox0M9JU/jp9E9ahjEmSxYeEh6NHkkf71KxQzFQxfjViQMlrNEz9BUNYw0kSG5gVJUTNB7GND2MaMvQ8DEhuc2mbM9OG4nvGgYFg+ukUJ8TgkvIDkSv/wChJ832/leuQYt1jAxVKy6fDSNIMDKsW/wJW+dGZhRRn2MIzbVn6OiB0OR5dHr0p/5Kn85JI4EjZgoZ67VCSxYTPw68g2l5L+ki89iLKFctpC5PABLJA0jJZzca1J3R+FOP2LGrN0YqcvWsMCHkGsC0viYEH2ETDQ9BG5ngDXIGYCkhmIlV8jTAqPKhl1DQxgQ3OZHOQhyyO4n4ckKg8E7ERv0k+WT3EN9FbIleDgIRb54jPzvSiTRyRDgcwWRrGFLCnJ0+JAnriYUMzGBPX2R46D1dGkK7Q9vv4BEjC5FNb2FSro0aA1Ja0S/yoeRkK+CJXn5JsQJK8mjwXUTPURAoQkpuUyQQ+p8pn49XsDTG99iwJmOG2M0U0GO3JtJFmAmxFcUlwTbS/ZCwWBDsh2XMT4kaVUHRLw3gNR1o3YknojdvgStYvptJRokA8+kqIUspGSeTmOU5DnEiYjsd2jmCS4OxAc8m8sjuR1iDwcRAhEfxz8UFovmWw9hN2lgZfbfiLXmYqeOqVzDMrSGRkGPFPI1UyDXgRItzTyJHUSvkXY9DGGybbyeAph4Q3Fdi3uA8MyU1sjKJYYUik4SJhoM/YRb87EhtykjdjytDy7p9wkkBk7/+w6bS8wPCjk9y5z4jaRy0k9FQsqJuwsj0O95STEQYGClKeRIvpMju8kjw0eT8+qRJ/Q1ZsFpS2ErTYUnd60pLi/tC0b3MEQeFJ4+gREXCIk/ySBXQz3tWOWJtqCF1+DkHvEA5hTV+CER3a1spgRwyYPyBK80UcGlHY4CGxGkf+J+8wMIXzJIryz0aFWXkm0wUYmL70yF6ZkZEXdC7lDgqG4G50MQUd8sgQp3ljgYMZsSOTKB4D4HdpeC4FmyLl4QWWQ51dxlB2FlC2Jew9jxh+QawR3gvYWs3nR/2J0e0SQxIjcpQ04wiTXlEGYUZFbItUelrJJCHaJRyHIcIg5FETd9cOY5BAHKFyHLE5wzDp2kOzIc+SxCsjmDoikKivZzewqCxx9A4UcKJ4ncyTOQn8iMzvOCtEI1V+WXZHNOST3HNQ/xnGR2IbENtEEf+VTEIb+BKxhfwSHgHDoG0JHjSSEg5oQMaEX4EzAVuDiMqj3ahkByKBYBhmc48zSkiQQVLJskShDSJu2MVMCWjOc5h47jCsKWm15EcT5GKVM76fAyG47hhH4aLdptocQ5CS1AWWhHNJ7ye47NB6m8BxnCcJxnGcJxHAcRxENiBBOEIhEEEaRrH/p06yTST0MBaiy3ceX/JQRpBBAgQIECGxDYjsRI7HEcA9g4B7RF4OE4Di0uM4zjOA4B7Ytg4DjOLRcA9sWwcRHY4jiIbEIgghax/7c2tESNMSXrkvDpe/AkBy2ONob/8hH/vMk1BkSydYIIIreiUk+r+G7JADY2g41v/AMIL+mfkj42JSx2GrJDaXAhhrmCFo//EACkQAQACAQQCAgICAwEBAQAAAAEAESEQMVFhIEFxkYGhMLHh8PHB0UD/2gAIAQEAAT8Qh5sIOualgyIrQVJBW7RCK8Q5X6hqOoyJ05TsIB6xpwJjO50keBK/SdRLzEAfUR1gbQmiiSdUAPxQASjiUlI2s0AvyjY0APtl9iFTyyiVGBcVStN0OKA0qUTD4mE/FpUSIMRflH9sCUa0ZMr8Qmxk4TZD95oasAvkh4LAZ78DiPEuXoMQft8X9OEvS9Kt/haIz7KXq76Ha8GZt0eDNrrGXTM59Smw0uXPUR+JGWaM/TmPgbIv1QZejMyMBA6lxX+CDL1WPiiw0ZcWXhQv4mly5sn7nhsmXWpcHXMvllofysFzYioiz3p2hZ1OQI8i4Vbu4COhoPx1J5g1EtfDbFYMHg8oGUoap+RnQw03fDNngFE4kuKbN+BhqOLnoIB3YfCVejtYyxxJnkYFuMwMDRq5VVzCag04pcVGUt1A2aLlz9Vjr4ZSDMGevjuWasX5HoT/AL0V0rE3yaJB3LGB6DpmYpWggipDrZV7WKHjvcUysRfTO9CqT98iy3UVfCht4O2hpp7gzLoMMVqxWor/AD6MuLKG3GEDGAupmS9Xks360X4YeDxE/kJcYIYz6fGM/r63KGZXxHXhaix8c2kuXL0frEuXTq6g5XB02R2nUNpeixQbSEG4RYjv5YMuGgsEYpcdEfmTE+iXquJmveXoxcTceBBuOIMYL6V/EfC0uVS1I524Te+VuXe9FgcQBEd/ywvgVslh0MR6Z6eJWu2HMC9XaPMhahZf/OQIIRj3rR5+RB4cj3NkwWaMK/YP8YxvSiv4m41h8WqHBJIgoHBhSGc5Q7bioXGFxKAYFrpUtrRjo1HBKVPZDBGKLH9DP09KgLY1C7vuKrcMiov2y6pSTirnaP8AQl0jAtw0cPcT8lSg21Z5ZlqTL/RDaJfSST9oiQaE/WTZ4LiVnU2aVNj4T0Q1Wfu4R0Zm/HBUd4x9o7RY+TRIbabDpDRlxaEIL1/qT9KLouj/AFasMdFuIrfqEIdFn4Y8aGjLusIMYXHRbHxLhLiit/EuXooqtNqZltHiXu7Q3jLrRlpBl6NRmBdeCom45ToR0i/xwVBjQuJ+JH8Tq62qfpQlPZGzkWNNod+NhEjYRjMjszcVNFsSLRG+qsYKPCEURWlx0DBMv/7fSPDR2pmV5mHbOeHWoMCWma/qAn+kWNTZKg/Z7jM2LL4YUV0CCFFCxSBCE2ui5ewUU+J1olRAf2IuooOxNPSLA0uUe7vqetDQ/VD9ErQ8GOEuWr8WVN7E7/qH8ykC1RYj6hoFxYb+OH6UIb6N09aCfsmtQhsfCYB4JiGp2GNcPwQ28Ehx8+jozP4MHWpshHY9Et1y15jFN1Kl6XP7CbfguIcujow/VP05UrRg8AuLEr9UuWS4sZBlPBYy0vVgKHcqCCSyXFK3TnwojsevAst9ibTVSPDFINLI4aTl8FiZL2fzJpmE2oxlTbMo1RJkEdGIrHWMfgCYkL1UrrrizGCAVskQCs49PtFBzYhZKE9cwHERRfJALrYI6nQIPpJSWQLQgW2WU5hzSvMDmb59w5SMXQj6xNxFWwryJ051ZT6y8wh8EOPDizoTqQHJjGYsiX7HRPBgAF1Djwle4joMs3guO4g5Z3Q5oXbv1PzAjQsSfNMnudDLtrhGNyz5I8LK/TBIEAJkYGZU6vpOv6RH19IqbMDILb0i+Dky0qxAcX0eULSaQX6EDmuWlWupdjTnbUMApPOlvsTuRfdkLTYVDWJn/XEmyZLgiH0T1Y8GNGyWMM+4W7Kl32J0JfEl11VUBCKrQrmROKHsaPvTeFch7FgX2/UWMEYAbkfWxpxr9zwjJwwAqCfLCO0c05oko0hgPYYwB9oGTXDK44HFEI2kqsErhjhhLmHEH3qUr4gr7lviX0l9Y9+siFSXN+0XoELUbMAxEOInSQ6kX2I8gFLDpnAJyEVMkKs9rWtX+BIkvAYoR486MfQI67EIMVPxldY2Bfdle9BHJPbWxaWmaLcY82d+c0AiWAL23gtALJvl5vTNzMjdPklYZL/ZADAAynayz2y4puBiWytvJWlZ6gJFJRIRDD/5lpkTowL1nVnrEViTqzqw4Mp2MHBU8onTnSjwoCgGJ8BQkeJOhMeybCPU6UOMgfpDjILb7JSCidROknVEBtNoQnidU6yIeiVGPSFW06Z1E6I8EqfLOidEpxHimSvGA4iExMQEB+TAJSU4lEG2v9EDSokBBj5/AlP9rebCI0AQzI6pGKn7Qn4yUSpUqbKBK0I7TPwmJtPkgYQ8GXyQNWbCDESJKmPxMH0QNKiFQ3wQJUomRSBU96IRh8cFF1CpiVMBmyzGmJuQ0Pz4P8LrtlafHgcMrBow4mzSrR28G6FU+JXgv0Q8NyX8Bi/VpWjMdOanLyx+74VP0Z+rqyps+E8bH+jeHgz6kMdHTR4MeNRemHxvAmMyWltq8Hb+oeBiFO8JUrSmSGw8Y+/VIwzCvhPH+3DStSv5vibr5IMaBoMTPXM9aMlaJP1ocfjwdpn0sNVjsfmGrNw5Qmw0NFXzoKPrwsfCmPw+daHniTY8TY8DRNvjDquh+h0rUfoh4bk9zvStBP6MPD9JA1JvR34TL+543/HD9EqVr+vFeCow2Hg7RvkJHhsm35PFeKGIUlEdc/k/0w0NR8OdDG2jrd/L4KP6JsS9HT9dhDStLcuXDw3HzNh4bIM/JpUxoPrgY1Y6kcdL02TNTz8RY8eL1cmGhpREUDrS9F+WCi60f5sibWhpsmcDRm1jx4TtpnR0/wDbR12ns8l+06LLi2TH4iDoOm/6w8NrKtHLrcYwDw/Xn6LwdpQ/HpjUDnyTY8GftHgzMJOw1uIqfuNcxY/o347Za/y8Fmf+hiBoRjNz5eDLsxt4KL7tGKLoNjxb/FDxbPn8GP7Js8Xt86pEjtdSsaMYMjsm3R03oMvl1Iwb1r0yPtgUarHYHIlq1WKzmE2kvyf4cYX1aGm9NjVm1h1rmzxjMJGtx2osEuEZvSoNHRn6RCtbiydfE8Mx8RPxQPAS/V8Fn6JL0vXWHgsRn5Zcslmn9OG0fAsDvrcRGRiSzVAR075QHMuIlwPyMs5lmikqRe77ZZLOZ2TsJQ+kOQnZO6PGlbeXm/cS9w5yPKR40rlkosk7ydCdKK+yYFsdSdKdSZdsrbIQ53T9zkjrTqRfaNye4VbzraiUt4U3hyaLlhUwI17eoQcBLfXSLAv3ChmdCZ9keFKOyFg8aVeydxOGmYPUOJHgTrToRGXAM7Z2k6seBGZvdwT3KfSdSC+kAr03NkqV5Pi6uiEA002WrnZCoalM+eJen6hf/hKTUCWbeH+Aif8AFE/4ZRIiTeqjItp2xFMslPvHm6c8qPzrCQ/6oQuOh9xKnGo6ceP9y4bKLA37lARdFtx7RdEQ2h/2IUZgMZsl7UYFVDoS+JL4w+khwyEJxrePGobNoQqFucuK9UgcorlFH3AtthOpK450p6Ijw4qj0Jza2iTdfYggh19XPNK9WPOnNFMnvUEduMx4UefCFeqRH3uYqzKd2PLjEAItA3ti/wBoRgZKeqImWy4NocYKYLSFsILFajD1I3IPtCn+aUswuK3eZ2R2JWVbDlfcKNi0M/uPDBktqvcR60emI+oO/ZALBDMmiMQXqYZXqXeo8KHGjxIT0jMj3OnQHAjxoUw9wHE6dMcEEbEo3UODUJ4yGDXqdRF46WivhXuFe06mmeIhViBOI8Ms30Ck20J1EeHRNG2Ar6qX+p1xD0aBoK9LDgivqHDDZEENQeL/AAMZekjF6nWR4U6yENoSdJGgdOIT7SkpxKRCA/GSiVGMJNIzktWeg9aJK3uBANWWjGbG0/8Aq4Sk2T9c8A8RVMRmx8vjdDyoeH6kP0aulfwnji/kiweC4ivo1GhJhpWixL18+l6qg5cqEAkqIjvN6K/kYEG9a/ihgMdEUz+55VMhFUFoZvgkqVBP2CBiGGAYxmT1OjxNnS9FxpwlaXFlFj4jUe6gy9GKaxooaLDQrVmnehdFBvwDFfQPBmbcAh/G3B0TWX0S4sozc0phMuUXCMpRZo0loQGqyV4je2DASEvYQlmpJu3Ip6GBOeI7bPbXhjgGx7CInBgBnMpxpv5tpjXCirIJWPDawfslRCDgFfxA+7ZejMdvDhpk0kPhueUaPmeP6c/VPBj+k8d/5JseDFBcdDSxqzZGvz9K0dp+6/qVHMiHE3b4mX5pWYYjLzKA6hyQKjNkeXxLnCYQYmsSyZFLwTLwP2cdE0wEiN8qXvRn6pDR02TYjpcsjqHrXZFy8Uk9xLjw2EWDRzZpNrVjoY8nKxVZWm2K2+E2aMWI7/0aPB2ma96H8LomrctP62lRjceCKqxAOcSlWPY2hEDc4JhJnzZoqPy3S2IFtUSk16tKJWgYtKU2OCwHiDYW0zG2ogdUog+pb1aB8YQN9UoKO37IRz80GC33ehm09C8r5w4Nagh+I+ISX3nl4Gb0Md7FhmYy927gkvTei+xhDVaD9hUVKFMPh0H6fjj8KHhvT9p8GJ45+mxr8J4MNfCeLp/ifqa3FjSR8NuWwht489YqVBXzoxaOUX0sf16EYjcsj3Q2jq/SjSDmXCmMCf7ribdGGiv4IjqkvSVQSCtWX4fCpj8WkvwYqG2l6HXx6y5cWIbnTkSw1V/DDXtir5pNng8ov2YaMcvnymDV1PbyPt8FSYLXJP8AGyjVjHS0yQvEcUjZtK8gCRcD6K3BuzA0czkZfpBdbBLtw7arQgPtYsC+vZtxEInITdZWtbD9Qb4lx1KRhbZ7tgysGUHpjUybjkgAAUEt0yfNLUj8Bto0cOhYDcGzF2Aq5SxUoatP26uJhC2IdTa+IUgRFaLB2hP0MH4jtP0/jw+JsY8Pl4ux4xv45+qeDF9LxzQckeHxGXo7eXbZBxL/AISKPzmO0rSph8DP0/BJkun9ngxh8DDXww8FYd/6ht4mz5fBgsEh8Ehpujx/XZj8Oly4pd9UDoxZeT9TVdDH59AqGhpHUXrNTIPWLGly46TqNk3hFlwBOCVPjgy4sBTwwdIJcuWS89Rg9fzOjDH62gkxUZaVmYckvkRYRGqht3uPITtnSjyEtfidhOtO4jxorVN4eoTpR4s6EbWkWcIJ6fc6E68WsIdEYWdeMp4UvNsI64qdWdGdGdGOKI0YcOHGhxYhhEaNFmXPbK99WtxGRcC0mHQhdoQQ+oe/idumS9y0mEmqR758s7H6l6mcQWRRYz5tH5vqB5l4p3lW59J1/Sdf0hxfSEqnZKgh0s64zGPpFDEBbLc4n/OmU/rjAE/+MM4JgqLJSgG6/VKQbEY90CdY2kl7JZtPdXCo1zr9AjGA81ncmSod+CGURyXEXErPePqjvTYlc0xfMzYH3pv97LeErDHJAhix/wAlD2mcZnL90utGtZ05/wByMdgxGcTRGVwQaNjHdYYQ4Y6ovhFylqhGGq0HohehFG5F6sbx9JHRGCBZmNxZExSMst/UnSAra3gUw6C7QnrFOwQg0kT1Y7ISQm4bQGBOvD3j6jds+pe5CGMS6AF9/SpivaExDr+R1qM35eJX/wAsOf2z/twEyhBti279p/0J/wByU92VG73nzz558se2GQXVS71OiUttEAhhZfqmz7YoSkSDwhAtvNwY4g2ARAbOdJ04sVSVGDE4sUxHizowL1nVlQAWCdSHBnSnXgDZG4Et9IcOdeV+kw9G+dKdCdWPEh8Dabf9S30TrTrR4U2D6IcKdKdacYgLiDTHqdKdKdSUtiLw+ydROknUnQQwxkcU6SHCTqgw6uQOIhxTqjwQYa9t/UBWh0kQ4gD4mEWr1oMqHqIifb/uATGiE3faEt6SiUaMeH/WIaEJtn7yVqxA9yQMErSiIVCRolSiMf2ob+OUiSoysnqUlaE0tkNEhxDTeLNKiaKtamcgJiJLipw4eHo5SAola5U5EDwz5AfqYGh/G6ul+lpUZueM2TPQNHwB140SMv8Agn6R4bnh60B48wfihoEqCyLL5eCQPuy/D9dn6Dw2TL4CGixZT7E2PB2i+l4+xxhrc2z9vB0uMX3NalT9tP0XiM/N/vwWfvph8bwZsIhiEJcU/aa3GcX1hrcVkd/P4tPhi+s8GC5hDRmw+ZtIa7WGyBDT1M9GjVYIbRIyo75AhoNWZcqNurFYdrPWtxoOBYfysNTzn6GrNyD6NWbGDWYymgkrT92DEqJEmEv0jw3psuFNK0YKfrpWu/P1hoaYk/taMNLx9/H9XxjYz9E1XT+0m38eDtCHhSbRzA28WPc/Bj++Dw/aTAenhsgLuEfvV0VfOmPgLm848ZYitvbwZ+o0db8iUsBL0YxwPBNy2HhuTbhqseRWBBsaJo8Hc2asNl8sIw0Oepaul/TU/eh/G+DU2z9LQjNj4za6B0vR/RLl6OIsXLDbS4xH4J+ujrtZsvK+DKvwPBlb+GGm2mybfy+OHz/H9Sfq+JfQ1dV+l4O0H3nj2y2eIkd9Bl+afvPKg7OIfCx8qNrePi/SpcvS2LDMT8sGXFixRGroumuXLlxV8hNjVNGSdw1ufsTbqx1LZ0NFifv+C40DVgH8uhlxZYjqMaGi7pIaMUF8/wDr/O6jD+iXB0GWqdNuq96M39Bq/ahqwX8cf0tbm58aM1YQfkSyXow/oiweDxKfd4XN70y/Bn49IXpc2THvEvRSWRm9Gfg0vRZh8+hiWSyZOfpEUZlkRL0YhKyfmI5leYE3ZKSks5jE19T8LnZL5TsJypfb9SHCnWjwJ0ogRNoTC2J0I8KHCnYRu7N0ONOwifpOlKzmGOSdaHCnWnWiM/uHth4Et9J1JR3Ia9gq2ToTqTqSm03IUMZ051YluZX2wrl7nAzqzqzqzFcMzgpV6zqzqTEA4mVR1JV6x4cp7IO6Ye8Sn1jx40xbLleqV55VdJj9/U+WdP0iOUVW0B/ihMzWElVXvLntHkx50pucDdyr/GeDoJbZAAo1ITETyCImgh6QjE6YXsR62MxgF4emiFqZVpXH5wcmEdiTBgTlSNlXaPBgt2kGANo+iFf40CZz/qlopJ1PqZyhH1H6h7h9TEM6Mx9I+p1vqHsMyvr8QgrcJ6MGjeGLy4re+nX9ZhjnlZ8F1tfXGWc4tLAIK02TfGSsy2EDjPZYN7w9zisAWNhjwRsMWlY5FEG4J3jytWElMBfbL6BWg2n2Ezqt2f8AYn/Zif8ANAP/ALTejZR9H2QH+SAl/wBKWmYIC6pZpmXdjzsT2/abv1RmS8y3OY90+aIdiiOuPU62dcUwkxVTEH0tnVPmj2Sr0xra4gxSXuZ0xUMQGV17WWbk64RKQmYIpcjpgXrUY4UekoMaQ4k5RB7EaKnudaHGnVlewlYpCYk6k6svsIPZCLoTqQI4T086SPEnQjVsm0PcOJOrOtOtNv7BDgnTOog1DXr3K8QMpMM3LyxIBKhr45QetT+R0ZtgYIECXHiUppUYpmLuMEqUn6UqVGNzYQILrsExBOx55aOm6n6mlwmxiH82hoktX6pGOlpV/tZhFgy4rIrXyg6sWFerP0Ivr8FxHLt0L0/Rn6JHV08svS5WfHPWjGjxP73iq74hKhCY/In6zWpsmbdNCJKmHxQfR4My6fAYv0Rn45erP23+oQdFjon9rx9fWbPDcm3rcWOfghoRm2HBpnTazAa1Nk3PuDL0wmTd+GJNxyvggUMGBGenkEFD+d8Ahok2R4whVS1zcmZ8pnDUrHQx0GeKybEu/JCV6fvRUvU/UIxg1FmxRs0uoBiiVDuzHV2j/wB33B0USxgx2oKJcHQq7NAEOOEGOroU2iBUX7jv4Y8BmlUZ3AgblxAQ6qG02YLBuC/gn6xpWtqEXLgxhxIbIkHEYxW/lG7lyLUpHAyS9MI7+VP1GqxMpX4THvzEfGjpsl2XYtGFQRJh8bP09ChowcDoMYbn9rQ1WODbQNNz40C+C4/EHw2nzNp4IFLxL0MLiIz86GhjvsXgqfxP1tVYx8Uw+LVipPcjQ8b/AIHVikDQjHGzpuRNLD8pc2xntP02lx5g1M5UsPLM/gjd0GCq4bmaNLbGCpuFKsj5BSEA4VKdlKjFan9/QZ7irqrPXcd5UDe6uMMlACBaP/CDIMUbyazGIOAtiSXEFFaHeDjSp9NDC56Z/a0CxRjSRcumM/sV9KBsAAc1K3H7JEW6lIIm3l7YtYkINE5bnlQtlOzBXd1cB9RJk0f0zP4Ia7YpLisTLjhbEdVM9vtGDHJAqLBIYbaDcuNwpk3TVixLf728SVqcHZBh4sAdIyaBhU/eaEsGXGUgVCbOmBFY+2tafsM2Qhp+pMdAaLE/WMgw2jN3zmzVYobSLL0VKZDStFRBQhqq+OCg68C2cpNo1SZFwLDwqXrfm6KenzPSBrveM2Q/sxZiQjejcxehuVo0yQAr6Q9/iVOkGKviCdQIBN2Rirentig/KoQ8zGjBhlvzMqGh/pMbT0ajCER7kJAFoN1mE2LVeoOib8kXeDHCkwMkl3z6nvS3tTeetCbJufKMoqwND9ToEDA+h9kWQxLy2bSqqSfYqYfHFbivf1ZYCeo6QHHTCWhUrRfXP1TTMYsRfeaY19GWx4HDMPzfB0wXC9Am25Uf14suZYypolEYy1BAYJWol3+piFIyoT9xNt0laU6DLxAfBgM/asdTMvmYDS/BKsSpRKRxMQKgxm07g4l6FJnwANbipOoT8WlkuVN1P1JSPJHmIyl7iHGE6M6kBik34RV2TozFti8FD0BAjoed+LqIqFF3O99R536jyv1HVMOm53P1Hkfqem36l9Syg23Ye0/UADLMO79R2zFCmBbr9MeV+p/qGUrF+mJcvEqM3AP/AMQp9zt/UWkGCO0RAC7RsOyXZP0lp7+pSQu4EhvonX9J6v6Q/wCBlu1/TAMqkIDK/qfL9TBiFA3Ta5b6+kJLdxF2gMD2cMqM39TrZW7MyVMBtd1nE+kt2X9RZk+keL6Qghxc6WHF9J1fSP8AjIVGQ4hjtiOEB3EhFfSJ7JUiv7JvLGN7qFzUmQL8woWwSl3TtxH3jyYNjemOJX7fc7kOTO5MjRpTAtyPJ0DSDHm4gbpLreWzi/aZSi/mYNv3BzB9yybQ0Q4/3OM/c6/3LUWuEpuD1hU/0MybfuPCi3r9xXeSIkY+6cuh7P2UZKpiIxGWGfXx9Coe7RX/AD8PbIv/APaAVLHMxUbe9EP85ozIXJCxM68odmiZNn3LazAUP8znlw6dtU77vZDtK+rN03vDtJ/WBCBQif40D2+qVJ/ypYQJwcP8FP8AgT/nSjMFH/zFp/3kz7/qUgszDimQ9qdCJAXbYdBaHztEb/fBN18sAM/aLe2Zfcp9RLBxtVFt1iI16WHChxp0o8KEMeYdTzYIIU4nVHjQP0SwxFHE6o8Cda5QcQvQ3Z0w4SPDBGxGDXqHFOonROog7fMBxOpOmPBPxmfiZHi0I4yVnBDPywPE6yHGTqg7UOqdE6UeIgMZ/nlYHidROsjVtBKHQR4Zb6gvUJtRZ6J1Tq0jYPUvNepTiUlOIioCuPaV0KSiGvjg+qUSiVoJteyVASjiISsw0qVN6A8MSVB58AJQ+RGPwpUrStYVGJFQkeINt0/rRIkCMHjH4TTGjKw/1vCVqi0zSIm2YjEPyoRNXTm0h4M/lgStGKIdaVruPc2JUrT+4mxHTMZQfY1OhEODxb/DS6OCDHM9K1dbdDzYs/Y8cFNjVJtn9jDRZtmHwkt1SP8AfDVY6+Fj+l4BZMvmf7h4b+Q6sK/7OYy5emyDP5SvC/53xf1Rn49COhf5v9+P68/VPAx316TRmEw8DloKhGe2KRf9GMLESMKxLO0eTrL5aLAMU9JBfDRkhouj/X6lSo6Wh+lFgJcWc/G6Xxo2DTLix2QaVokx5I7CEZcXEY6K5cYMvUzM6HT3M6LA6TbqseOBxL1GV8RS9X1QJcvR0psPNulSv5mMt4atDEPAYhDCGu2ZyqVoxK/PDVIH8MFfEaMqWpgo/L4Pjxm3UXmXHab/AMvBn7rquiz+PL19o8f2Et+J4ZErEwl6bbQNtVn6XgGMDL20cMSyBmVzcp+kilZhcF0rUvmsIRdIhtosTcWyO/nmqSp92pj8WoYy7x1hqzD50CF1B0EGDpDLjL0+SbPAWGvyhpIom0NjwykarFZ9zAgIRSweCG2rNxotFjVoMkrRWe0FfF/+C9GfvQ2hrsm14HKbcuXHUjVi/bBl6v6Z+i0TTZF+zwdp+oeIlZhtq7TD5utaV/K/14m14xYWr6v4pPin6Z4JBULoMuFYWzVg+pgkmjocT5fuDFgxIqk/URgWJEhRHiGF0Zt+PVdNQDuTHR09XSbCJNpdsYvqeP67P10rMqOJbHfxIeF/tBiA3pTLVA2vmVMwimbdwdbi3+PgwqTSoRZgCn3RCWSyMqAH5mINaFiME3urAcyulQOcQV8XkeRo+DD90KlkpLIUcGYJKSyItmMppZosSmGCSzWn2QYJLIpomfiJiNRgylPshMczEdoq7hMtBixn4Ms0xFi4YX5cuXoUAL54nphbATHMalOYFOZQ0yyWcyzmI5gPyYcxOlOpOrGVCbcbaR15X6yngy3Uyzpzqw4s6sGINrCvInRhwYcOMQekL2OvOvEdzFfWZkxc/cOJD3mdbTAADZDEkQnRha44iG5i/WX++Kj9cBcHOh19oKu/SdkwCznqGZrhEXCg9LHR5BquhWh6blIxlnrOnENyTjMC6chDjw4c6+iLrG0yIbTozrR48ePHhfROHnTjASILPcqG8R9v1GaPMpO8L0YcL9T/AJ0pvJtJ7LbzH3hPlOgkhZwq3x50x4Uf+ub0kb00ApzC/bGMSy505yQr7kO7eCV7cjrXBcN1HMHcdotv9kO77gTefuGYcI8JfifxOoEJR9v3E/5of9Uc7/dK/aB5T/UwPKJgNboVMpX/ADR7Z/tZTn9032w/zcN9kcysuD3Cv/0i93M5Whf/ACTff7Jat4YGUW6Rrxf2RBQTMW7D/ITJpcFJB22IeAJBEqJUQQC5Os0pmC95aZ+0s6RXQa02iQFVmtRX30wKkm7kit0aG2Zfc72Z/f3KvbEBeEl/qX+ocGkfsgRXQhwZ1ooUwgbZQ6heKfWdedeUL6EsMiWek6M6sKqMvknTjwp1o8SJqYz/AHDhTrx4s6saQYI0NIcKdKPEnCx2MwA+oRwodxjTc3cC9NIelbkjxp0p1J0I8WMwEulLPSPEjwIWkQKNk6U6Ut3MGbYuw2qdadOdedGV0JTWE6c6k6cAYEZgMMOIhxp1J1JTqN4VGJ1R4Z0kJSbEOpnVEQiyAhAYSyz0w5OZgLKREJmBK0ACbyAaVABMS5UDVyqJpUrEdQGGgRjX5T6gx4XL/jY6L74M9IF4h0NXECZY6+4sHgso7bRNdg8JoclCRjt/MPChptIa7ZZ1tDGlRI8fUESEWO1/vc2JgVYaIJonUAnvMvmdSEoY+Km5Uig2hBXS2/EAzItH4htWRCG2srRoWF7fDZHTubSg+oa/sp+s8ExE9VK+tPYYh2dKflIl6YlFZ9R34AxEjbf/ANxoAFhixlS+KiVALUQ/CQI4itKSwWQPhN/UEXQqGB7B0TGQLPaAegwKCBdjSoxn+i5lSoxYrF9IJhiy2oXxMlXNk3fZARXmOwYAlxfYTaa3MiWb5NNteZfFhj+5jWoI5qQIWylq0ZEzKByaGjdoB8UHY1mH9s2hg0Y7WDw7nBDR04MNGMWDkQ0R1yeQzAhowAuV0MvQ/kYxn78J2Xa2IPUlkNoriC5fBEdwhNpn4iwx1WDJzEQKWGW31Ec0remC1DBrWMUINAjbCBTmKh8xFECnZuXLlZWXzDbr8MZe2AlH1GopBqOUexlYrbjFAr2bxjflaGNGKkk9p1KFQQCdwhykFS0W7r4bhLEIle4MTAKQKYvmRuJrwV+BCA5S4XtRSlQzeJWQ+4tcxZg+zrYLASXhiy49/hQ7lNe83IaJ26sRTG20UQhmN8+psqswVXuXGVH6DWpsYK7QypObG9o5iGE2pBUY0VYed8SIRNyGpfnaywDbA2DFxACOQf3EtfRdseJs9aIngq2XyhxEimIS3XbES5wwhbe9QiH+lJkOtz0ShXsREtk9Rr3jqx9I1eGh4fvf3asC943hrVKrbOQpMxTtwnxZj86B6h3c4Bk79zgj5BHG9yf0JteG2BLPt6qYxuxBKPoYyfSW0iJa7q46TEBzHLC1Em3VmBmSKfbArVe4sscvlg1YI6MpRCDBUQEOYiXZCNjLjpQ74a4/HDRdaszDvwMdjwLDbVYjgEgYy/5mOn7sHIywO9I1zusyKUsZqkHs1iNWbxL1zGyFEtowNCrzkaWOLAPyzZmY1ctsGlU2qT1BGyjtCKmBO2Pyx29O6AWwuWLdg4XHfSWME+9K6jy02inklTDlB8CsOBLU6W5vaT7tGlgJ9yy2cFuwQ7a1yo5eXLza9wVU2IzBuZFeUqLC5e4/7IAFEGQOY/UDsmGavNN8AQKm9HZ8Bo6h89hjbVERWBDAiUS6T9NDXbH9SBUUBUI3EvQYqmt2BGMENKj0XqFpfSRX+WZHAM1ggUBNjMlO79Muw9RrX4gxduVLCqDNsqXZaEVy7bgpTAqNCCn2E/QQuMrUDMs2mQYAIM/BLhbh6LF0kqvWsDKMwndCMxOv3O2CNrAv8RSpnKYEHpIuCB6IDKEQ4RVvtP0M2aseJuO0IsNq1TAYNiVKVuqJ5hG5YQVbEti4gKKM3FK9oQCXKNMMVoxK6C0nRRHewbZhoeBGGpiNRciNAFIkNKPggqRq/wBibWrM4GrmTeIEqWS4kJROcdLjLly/5WCJLsHqVsiM2eJQFRBYRYfAEfm5BRoAw59z9SMNDT1MYf3Y2NA6bHUGi78lAoMVCVDmbAaRFA1tCrx9W1i8gjErpM0WqZf8zDS47Sg8B4gifINQC9IbeFUgr8viM3AhDXcgBHbwFxD41NlGV7ARIbN2J92n1SDosU/fID3KNFJ+AWGu3I1YViGh+Y7aQIwabIOfGMSMRLlkIg+4AutMQIuJtl5e1KQUGlfQagBACFsp/db0WLHiV/N0WKo5qCzCEBtLhU+Qlahfsq1ChhGiFY5MRUuXLiBRFgy5cuWSx+EWSyWRSXvTMqmSVPZOtL5n+ZXhUCMY0DkgSlQ0KEiiM2hXIjuARibt36iwD9Shzn+knFChxKsW3gTA+5ebCdIneBdyWTp/Uav/AJl8NOXFueE5kZM/ZL4rZlQ68b8jxYy4xCB9EujpzxfueoGYMwYcX7hw/uZ8ivmLyqQ5vjJ/tY/9sV4fmPOEYnZP3nbi/wDOYqzqJP8A9TsfcGcog3tCy2ZIB7RM3/c78C4aLG4h7NyyiTy4yriCrZIS5xuzmbDuYntBZbKe4wU6pnu4HRcT90KYJtEuUpCXbbmJ+6D+5Mm+WweGiY/MrCrs6P3ob0KfcSsfuHVC2jGM0WK/HAqospXr9UG/+Ew0m+ajbj9Uq9+JbEMGJTG3/wCJjx+k631HEVQtiuz+tDhp/WdyZk7AnAowjkxcgDiUswAATNOrLNQmHFe5L9zijvxx1DJJoXmYYUVAIxDFC2KY20rQqRFEf36C33MhmN7e0wBkP8/OSTOGBhmcF2hHFwELZZoYd1Ea8I0bPiiZ90Fuk+JjrgxgiNpfAt7fiVm7LOOBOA7mKu1BuxHlEfEDJrzZgUUuXiX/AOs/6Mu/+8p/+8pFsQG86GW+oFJAKZiTZOvOYSr1hHVSiwnWhE8KEV8IACASiMon3CqlRIJkpWlhFL8gtLjMo5xMA6l6vifwOv7cqVqdvmEolSo1BiDCYlLVlwkNDBmQTEK0y/CYlExpR/BKNHwlIKUMQJiUiFQr/RPfhCAA2jHKIAPcTOyFT1ZGJRKSiUlA+WCa1CWwCVKiGmv5OlanSioybkZNRdM3HaZt01WRn7x4qmA0xptYj7JibYsQbWWEgbKf3DVj+wm1CoQmyVvo46MohuJzHhIGbW6Ov7DA196Ml8owlaUp+YBUZZKR9VP0YaqMUlzGimjJeIig3xo/2hmUWSSwWwiBtrCbOl6bPuDBq4Ci4vDnb3HUfhQ0+owGo7T7u+vDcvU878GM/bgTcwQ2wYtRBVZKkux7I9Z0LGRiaSssLPhilSqT92DpdS8R/pE5c9MIAheTXgII0gEmXM8ENuWQEsqzD6CtkiQEy3ohQlEVIQo0GDA8y/wAZn+LgGBmXdAh0/ZL1P7MBHS8xYhXbGAAkwSwZnUBFqNlZXYmMF24n3qwEvqTXeEtBgoytRETd+iKvkRWnSMYqYuIG6WkYk9XUH1mGLCkyDHRSsLGFnGbUC1iq77dcyjbSI51RVLvDGkt9qmeeoYYgSJSGYx1+COxq79vRyw6qpcM8iSgVsUFxa0LiYyMF0FYsruKlmuCxEEHCXbIzCNqKLDYN8Qto7zZP72tx0pwEMbKr8xg3kUq35ji1o1cPKyi8CcIATmUwLUvVXxgKoG2Bimi0QHYTC2ykuBX5hcEj6rZ7rIUNieuGO0faqIEkbJ4JsdMdCz8TBpeh3oL0VDMTo6M89tEwBqxPweYw/jYz9uZCJTJfEzjd+5vAINXkgoXhCGjsmzKVEECFWZsDUsX3KzoxjuCgKRm4mwh7l0DUCZtItgFRGUqkuoYeShYDE3K49eZv6fpc7NUmxxAcC0z0zhY9R/OFTQo3hKaUjla2fXEsQoKIoPARTMADp12TGrnLhtOCBGFPRiBa4mOtaEjrAe3ojsPdGVkMWDRYs9RioC5ZKt7bYIUKoPvT9BHT3HaWAAjrTN73ZYQNzvBQ+JWfJgsCqwGkQ2b3RFUdzeIA+oVq9xq+cF7CbrvuK0fZElPv+9mP5xHKDQUdD4T1l6Wg1hJW3HZ8BKldzhLRxLxGCtGUYpdI9k9WfeWQaFjB9EYBcEIl8HuIC2qxCWwy2rclqryxgypjXaC8RgAXZHeIxnZlbi4fCYiYAmMSwZAj2RhHtzENGbjNpB0G9DHdmUqreokZ7GjJgCAnvG0ovvsQirLDUDc3WdyLj1CeJN4XGkYsT8JNsvRUS7uQQ0dNm1COg0b9wKCXUpEz85qGj4W6EP4mftz1KAkOF4mR84vAVAwSoGlzionUzrHEQOJR9i4ORXtDXySpWpzdJYZm8S0bBnXvzK4WjDFAIs7UArHeOR7UqjAt2Z3m49SnjUNpfGGewEFQHA3YxjZGsc2XnowK3upUT3I/wBA61WJRnqEIbMexxWCjF7JOXJmJ1SsZq/UcnDd6WjoYHtkjM7HCBbxEQUT91P1mlRI7S5QZurYlMa4Jj3L30ABRHQw9BBOYsGCrDOX9A4+4UELuWUMz3AgBE0OEiErERVVXM1LlU3xUG0NGWLx/wCPBianaGAepWvmhFTNTKg3mohJS0IS6jBjFQzYytBgtC4togIJRMNsZRNyYGZoj9xtiCRxp0tUXmAYEuJCMkveIRCO8lATCoKH1AQ1Sl3YQ1Vu7MKi2CWoLcsANkT3MF/9pcG50HHaPd9Sh/4Sg5bsJh6V9xXYfcWFjeIeot7MKev1E/4SpF2EOZpG3/0iG1lXoaOtwhDyfBipu5Sbyz3OhAdMgg3o2TbOnMtVnHSuwi7wgJs06pslO7HUnQjwo8KZmzoS/wBIp6Q9Am4iiLQEhDJOlHgRzybRCVaojKAqG1cbTuiOSMZ9xL5Q6iJKMRO4jSz7IVbk7ydxO4nKIUqR2Ep9J0oqgWZ+l1uHAiXpOrEIaYH80z12yr2x4fpDAPogiivMteZES3MkYWIjEzncaIzMMLwYBOSMB9cDnaBdCMJ2fuNu+dmPPldCg6r45mPP7zq/cfQPuFGyYKLvSHB0XHdocsiy1SmYHVXhd/8Ac/3Mf++WH/1FhyLwNhaM8qMa23u8XKffRh/eJAvXMYNoxEptnbhK72kNV7Blz3gomlBQbXzEMEzJIVgIsbLCTcnYnbnMo8iC+0bTHMOLn/Wzr/cfSPuWFyoxCdMfGWCe8FJ3zh5bDzI86JeUefL6CS/+kaGs2Qqij0gEJmBMzHuHAQ4pXiXEKkA1BSGrM1+DwSUbsoHBDydTxvV1o3czonXOlOhLxiHCnXnSlTsgtiODBDiTrTpwZtN+I62iYRekDilhGGCKqPymV2MXAAGkLoMbRGD1LfUTdozCNTVvqPHA1aiQEHMk6NPrnTBitknVCAHaFRSHVJHAnUnRnUjxk9T7TqIcJHijBKP94lZWUiEP0Qj8CU0UQYajOWJoolIho1DoqIQV8TqBSUglKX1PExGMePhEIko/7eYEomAmIPuRIEKJcWGCFEQ0aiFXClSiUSiA/EzZGAlHEYyi3xCVKlSlfBNngsptaXopuZUdFiK1Zeu2bl7hox0oaEuEWPZNhLiwYtiDqsTByLwz5zf1BjW9WL/I6bnvxdPygYNK02s2oa7Y8PyxYoxUTP4yWJcISmIXVBjwVKOvjlkdFywejS6YkqFirIy4MuL7f6QYasDTOuyUgmI7kGMOTrSQjP0Xwy5tnyJItLjpAxAwMu5++j+jVlCBbMtFqU0bTSujFi/3/cslxZcdn8pcvX9Bn6HgxcIA6EYvqmMDZq2Jk3cGXqzSPDemJlw30WGPGjo8TZGDFlbisscoRcoUwGglsyckLGhUWK1qyj4IKgReiR4/smBL8Vi/yulPB5+UNWPKPDw2QP5EqLMZmaetLhpZt4LOL6Y7RPcWMb3waVm9GjFnOIMRjjRymUGzoLaKrcf2Q2lxdGhMT76EuEWVHyf1h4frMdfChOyEOEB+N/URK8BAd5MENI/oYK1DoQ+KExiQz1FY6vAxZZf97jQlsNFPxMGzwX2pd8erFmz0jiYRcT6Gb7QG9FEtum4sGJ/PCdF6bs2NFplyr4oqEMJcuLGgsI7aA6Hg7+SGxAhLjs+BZgaBCBM18rVQJ0KGIEgDE3ZKG2M5un1DxuMXQhD+BieRtZ8w0uLNyHCGu2b3zGO8yIIdaiCOAStLiz9KP6YOjLkYXvENtGMogV/FpRAJQ3HVXWowZbBz/bRWjLVEnSom9cz/AE+oMuXp+lFfxxIsTQfZ/SU3LS4ss/FIZIdNExfaXCYuXF0lgmleW1yggUoq/wCzQXDTd+QhiXLjH9qYfEly2LFN+gwpDCMwjH4IJAwUGbY7X31SXMihrwLB8za1KUUcTY1MqnaiwgExAO7EBmU+kR9Z1othhzynmC9kQmPpihEYTGB9J+5fKAqChGHD0ibkrBLAzafBFBazZsuJGyYwMrV5VlGAcxIGQsYdapaKcslMJPW0kNskVJAIJEcOp5PgujvS4oxGIbRTVW024aE2zBfMSJKjDXhZ0CmpvF9U/XhDRLhCyB0WMA3R+oSo6MD+PVRBCbTn+yKXLjFBXdfTEXnHgRa09v5IcP7n/chAbrE8MYUXEIalEYD/AJCMCz/6QKoD2h/kIf5zRr//ALRYgZVmydKM2WqXAMthh1awiLT+jMqW2dT/AFEt0L9MQV1l/Fw5n6nY/U7n1BiyDylosaQw3S1N1mTjKqnEOvOlKAuMNgIq/gH3BielEdxLNhE0BbVK/UY4DKXbOaCdhPQhJOppHXnVjUBzDiKDbDhxDcEZYlpfssph5WWcxYxf1FajKT/wn/PlfUizFXBbygyjyY8/Qt9GYgbNA39xXHHgPtKOHCFkq/ZE+2/McGYYnVOpKvUSmp1TonRGiXp3pibIEuCsSAAlQClVYEFQ2oARtGyCzsLZXBUIxKPqKtmVUTjDAIRL8CowtYr9rFnAFyWDJ0YN9kyKSt3QEzLw+0qBwQ0JZqeTEFcfV90dO6n3mLnvGmhxXvK9Kq7soFSHD9QPcyv8aGsKuBE9ZdsbY25glhIq2jhJ6ZqDXqLoF3iHFrqyelEDxxVThnXNpgO4B8szZRr8QgthUE0S8xesaDTUpFepBl0S44zmzLO3Q0Zj6vojZgh8TLs+p/oJZ3an07nFG7f7ZY5+2P8A2ylX7JWlcU3nyfc6H7nXKfWEbd/4l25nViJa4mOMwAFMf1I/ItE6/wBRXcS/CKjIq1MRmpIHNk6s6MwQS6s6Uq9NKPhboGsNkeCdBHgQXolobR8cdydadadaYQGy4U7I8KdSdScNHUjNx4k60eJGvZBFLTZ1J0J04/4aPFMRt9tB/WdWdOcPNlsBOpHjzpzeaw4x3JU2Q486elUnCeubsONHhJ1zqIKCtggJWUIiAqgmNAm1OYMGqS6Yo1ZWTCdYKZ+YUHueoFbuDGBWqIijthuWLojwDGgvQsc2ghlM9DAdEwSyHIFphxlumS4o0J7r6jmV4kbcQ28olWbC1xDgiBrmG/mPtnvV2RNIIlmO+Rv8S8GygnE5+W4aENCEv+Bix9R0EjIlQS9DaKhhwlauiO/zfBisfiYiy4j8MxQx6mNQVPoYSpQQqxSYjP0Oixou2FwLdUg+xM/hNKNKe7YJNl0eDMV/1mG2qR08lSpUyHs/YQ7GVvdUeRRSotcticVB9DKrkVpcRKdP/SWsliFiDGUGtcbwCAaHFzfOF+xFfxdKjMCYY7w0t7thgCaLFXWkHQsLU7mm2GBKiS3XSlEKhlD7j9KfD9aD6yEuXoSvjFwB9k1GbPhm2Gix5RzvUzLBGuMQelmlxYh6iDRxZSwbJcVjNks0ALYzepCeZoWKZp3FYpcUtWm8d8xsRrqiSgiKd8TAODR36NEhPDmB6ZCDiAzSbuXRmZi5TKi24MIPgtDR+qAlJE/tB4gUAm91r7bgMYhoaHm6PgUucsykpApVkZuK0IyV4IIr23mGrqYzuGW+16ELLJ6lzZAhRbCYluooSwuk9xbPsIRoS0G6WYm1tMpIonuEQb7EJYguY6WxDjApg9ALLZnvE9T2z7gNS1uJrM2UI3QlFpLJ+2j+trcsqMI9MdhyBhlvNK0YfP8A2JsJkwtiGFTVjmLtC4IIg1ZVyf8AlHUjZ5GbZVCstxLlFQy+BlMOhjGOHhP1NgLpG0P4R6gPV+5cdE5LmMbe5fYFqwUqzYfzlR2/JhGM2MQXorBOKEA9pgxjyJDLoVguWjymAwly5R1gMkOpb2kFhY8MIfrQl6hvOMSgupalyHQpC9JnNJFNY14q1KlPGgkuD9p2lgkF6qbI1gYwqHUtgpxCAdmPDQyuiWwlwXPdSyZKW6csFRipTbbGOkEsYyHvlgoepkQ0NNy4cSDTIgTEc4kc5tbrKqRqCR5yAdItQnYJxGf6iYP/ADiVealaMymGz3K8gFBEExbp6IBDQ1P4GJcCLENzYMpARAx9IAqlwIfRiW8cXRMEUKaAqQObCtbQ1fS2bx4ipoyywKUWraAQ3qEcqfWWCo9BAMfcODaJ6gjV5ZTRFe7gxjg2YGblbz9bVhiFFglw9apsWrYixvV7xYn7Kfr/AAAWNmPqoWj0qGizFf8AWZtRpPSBeFFyps8TZvJCoSKNYQl7QBPRFXyoriYsWMbtSmj6gVBbFeyDlSUGmUG5cdBYw9BALZcw/wA8P4ARlxTSt8Wfz4ALiJROEI56qiAOwMvbptZ/f8F+su0C5PosFJZq6JfVLl6MdF7r9TporRmRKygk9p6ssLOyABMsSgeoP1ImpdJgVFQcsAgjLCLEfDGF90p+koRcR5dBgKsusWZpEDcnQie5l3QZd1UfYYRNnpBCDGhgTew3hyzhLTI+4z4LJhjqzm+pGrKZaZMyn+SdrohoDdlOqIH6TolBQb03WXLjKRlaBjQIaGt6PgxgMS5VjzEluBzDBUqOFskp7RAYs96nO8CGxjwVPEuG1GNN1lC2Vcbe9GohiGAkBcQGVCKp2wRLgoqKVNkBMJc3otbQ5hTYmH5+jgGVKAIJzB9Az9xP0+uAlCoajp6DHMKANWBfiP7m0hJybQ0XRs8QBZNkX0JeqzLob+oJUalIz1P1WKJiyrlCDa2MoQBsS5cUld3/ALyyYlwyHP6IJzuBKipglnpKPSPCnIIhJrDHmIK9ko3EabpN9yYlIKxCb9LyZXmHb4jL9sSyWTsIukHS2/mA1AHqPIRHM7iIQszUZvepcuA5gU0yzJkkRUslkU5hOU9wsUQlCiqjfBbmBhRK5SGJ+yf9CMToR2wYbl74g6B/Udlf0xD2/iYsfTNk6Mtjvlg8ECG37jVmCLYcOMZu3RMdzDkfcIUEEKIXUNoscAw4BIk9RCHBBgRIwW9QIZlR2QYxNKjknBCZ0I+CVDrQjo6JjSl8CXrely9GEqJTpHfnI5QWyC5y/OHZpgTDMLKVemPCz5I89yovLO9nY6S8uHhcOgIENDSxFJnUUsBre0xyCtsNUfZtAhmKS1gSK/USNZMCWY0R9MCUcHEye/qdH0lBdfSCH/hK2FmU/wCHT3SyIr6EF0CssoqMeFOaVmye7WMqBknGfqYnH6l/+EwZf1BZTln8QiL6fvDRFlthjJSa9Mb/AP2jZNf/AOsv7fyxcuURi/8AWLt/snJ9sx/+8rCyyywH/wBoZWY0cxoDVNhZupr23GeWSswuN7k6JRsRYDhOqLFwMPyRTTt+KKFXFzYMOUGFsThgOYIF6bgTd/aGYdj7jkraX/8A0hV/6SkQftKff2i3Kg1FfTKufufN9zeXb5mSNwjNwixX75R/94sjt9z/ALUq3e5cR/kldbopttVLqJA6ZqdUZCpRYldjOrDizoxcBgY42Q406p1Qg8QmVSoz1MVCaKlb9pgoAGrFYwFBBShEzGC17qBox0LN55dbl2nLNrVmbwiaWUI2PB19y4gW6V86jD+FjtyiUSiUQlICUgJRCVCgiGdE6oIbRBanSR4k60w7JWK9E6ydCPEnQmyvSWeocCdCKuTCrCDAQiOJDiRK8IDg3U6J1TpR4U2z7Qvwp1E648UcMQrEURQYUxCYr3n6RKJZARJ+2eDLf6vTCGjNz4n3yMTTAiputJerkEg3DEotCKj99N3F6MYj8v8ASDKiRhJO1GWXGJ1s6/pMx+FLQUaRcQF1+ivIRomiqLLy5cvRmQQS5cWbDmDA0rR1P9TwSKGjCOqaEZ+Yxlu9zAas3+MDVUMO7yw0YojR1uXQQl6Ohg3curHH0h4LHQqVMrZf6NSHhejpcWeuly4z97xxJsaukcPB2n6h4Mt+N4rKComg6JUQ0WXP2UyTr4txfpCLCU4dMbpfrtGWRZ+0eDBXxf6dL1/Uh+jRvWPqlEVOjNq+G2Sz5USu8NXR+D/4Q0UQSFcPf+ohBj3qKXtL/gaXGLxFolRNNpA1ZYn+h3oaMG/gyvB4+2ExHTIHIgwly9Ft5YaMNVdOWLB4ZdE2mlx2jtO5cuXGHMTBJjQqOTGASnM7iPAi2xi0KeT8RrSGVHGZ+KJXI+pYjaweYT1K8OANa8r8GX42zB8Ns2vDZNjwXE3cfD9VDxsx0umEEun6OplT9Z8KqGFXArQcaVS8OfqoRjPU/ZNDVJTx/pl6s/Siv4NFjFpyoDDRcxmnXZMPkSh8SXL02RX1l+tCRCLCYaLv/UsRKb0Z+0mPxJejBn6UDoxn9eDpcubWGpDr6iH4jwan6LL0uXMnkMpWly4rR3MSEuXGJajzEQ9Je8yneO1j6RfiWqW5l9UdOW+oJUpCtUkxzIRLptLgg3GRcPYs6YiQdWB+idEolceRAAaYhI4IWi7uYeF6MLiha7E7geh/C6Mw0nS4oGly8SpRfVL12z+18FjyOj4EPBYn9rKla/34aMFm+6da9ahQfj+9Lixh3cOfopcvUV+KGjp+n/p1NP0JX8ejcdcQ0NDiU8PT3tDQ9NLlxTB+W/UuULGMsmc/6hGtNkVk8Mq/HGFwUgG8eeBl6JM5zwI+JmXxzEslmgV3cwbzujykeFKJpRHBxmRvDTIZcKIOe6JzgsV0UkGmxB6yuKHul3XLc492HtI7RH5qdZDjgBDCgSzmWvcogsI1VASihckt3o2iFNBK12lCAARaLi6ZByR5R2b+jlgFWrGNnXLgC+DVOQSgIeNaXA+LHyy8uhoebL0BcK46ks2M6UoMwpMks9J3EeYjFZgb3qWaFJsjPu6rjtKnwS5cuXCWcGD4bk/sZcvVHfmG2ly4vol3xSyOkAC106FjQW5ryToRL0l8KyKrgRfRKGBrpfqf8Gf8uWhlSiKKjkk+uA8sAtCRL1fzDjfc6v3Or9x+KxzHVGyPqjeOJWKLf6IehBhVcfTCzNfxKkyf0Y4D8FKXr9TqfUbnH6nL+sQT6cQGKoEXhKaE+qTCZlGD9QGRzZ2YBu2U1e6jCM86Uw1w95Uo5Clm0/3GiwQ1RvnYmZwudydqD3TGXreBbNnZgRmO3N3tmGV46IimGFP80NdWBAqg4h2RjX6myoaSdDTUodSiUm+AjMyPULlwpNVIM9VmVC8InAjzQVQcx/tZipQc8RWsW0S8KPxqMm94kauxCXObmBAx7jFuSaoEu027sxjgYUonoZYXNyJmD2ELg9kdZV2w/PQS56l+Cxrc/foHm6GY5dfBCTwPJ0Zdxxp2iWdJO6DnmdaY9Qi62AGBTM7mFWQO5n0+4rnFDdvFMO3pAUEUXup3JxrUkeFpyTigzlJNkKULvLdG/EGEDbQ4RsXuLEmDR/8Aeb7/AGQQf7pabYs3+yD5WKy8w7BrLMdZ+2GF2jr03rpKfWbTEth+k6pTiUSibTuCYlEaDMQXtt+klFRGm0v3oFabGE8Y7DgPgxU4wK0qJFIoEsOy2qRCLgI6+jQwv+v0SpUZU/a/pCLok/dSp8MuXpsiv4v9QdV0pqyr44vrhoxSPNsxz2FiG7UUqXczSXoxaiz0uGrLLQ+dmNEbNmI93AWrJl0uYymjguM3gcpQ3vLZXkIEZs9sRoMNYm2v3EYESbw6UexlOov0y+VmYEecTlh0CKbiVqqi5UJtj7l+soOIYioA/Ko1UMSo1XYUlefLGUCytk9tsrzOwjwIjrBjxrwCAI7f/rQJUP4F1U9kHNlZJjBSepjN6T+wYbeGxhw0Wg1bmXC97TAm3WtN6HgYFw21qDEz+XKiFCRRiEQp5YYwDBtJlOZsh/dpbtkEu67kWPHXvK8ZJ/E8cuj/AMxVSbgEEiU90WoWeVld4jneEXgJ7YKrhb5hoKCXHl8TD4tGXpolmXPEfxwZrdEiXgwKGKTkwNWLV2SCNNhNwiiE+zQORsSFFmX+/Y0vRlAOoYL+oxECF2IgbjguZGRnFg4ZQ7hjEDA1qmYcvCpRkCB7wrxXEUJhMGxAxNtKkIaSwtBIcXmEGKHRKalt1VEsF35TfKyLFi4mTYwmQt++IPQBAWlgqUDXYwYgRBEjbWevzKlyhtogsSzaDFJYh7whaSr1nXmfbKWGBNmV9fRMbbXOKY/a+DGCRb9Q9oGciXZeKElyLOmVmgSoj23rcvxsRXAWxBt2waCGh5Nx0f2yo4uJahlGNoVhFDDbw3p+pHaIz6GiHgY+oFa5nDBz4O0zDrS+IquzLYRGhQWnxDEZbbsPWOyCGwzZDCix4hegBYxFE+4BpaF3HBQC5l/xlREVNE6w7GByOd0YAWVczlH2LB+CErgC2VQavELXLx/fz9PrdHeKNKLPxEgFOaoJolBQTGkVGaoSJ4hcJS24Dqy3wyxYvS5VwoEOgjpHR81EcnMQYwIKBpa6yNVlu4bV1K/jS97my/VwoKlC9huyx/v2NL0ZZy+nBlwLWUEel7xPeMC2ChMVyStDLGA5mJ7zSneNMc+zggN4myPc9ykOmObC0F3tlpZC4d2GwgzO8x8tWIAdEbtPEH3Ed4cQFEhpORmAmYvKywM2WDiMWU5S9CIFDhpR7nShTchQhHdh6b+on19UWKUB2tFPUnWi+8EKVneijbLu57Bm5zqlHpDhQMFEDxKSkQhMu9GGIr70MEvRU4UDLxqGqw3ldbh8zqO2Xqanix0x+fQEN8oBRnLabAhsaKku5vxP447zeMWoxLikbGoqyAYe/C9cCmwhdGWXf/GCQYI+FoBDBuCCqbEWfqsTjgJQvuZcLpLg4xUOo/LMC3I2AIoBuR4a+YhNsYgDDLyMWhuCPcGm1KyOSXpRURPT4/tIn8XS4eOMERBdTP4xH0agRtBvUA+ZuoJIDzljN3TZLizL4I/p0XEDXEAJ+7/TSiOm18a9OiD5Mf0tGBUhQra3n+n0eJxuIJcXQgYlAbSq2hArcTEO4qGI9+4iiNLcS2R6YBREemmBeiEBygiiIMkIAewQwCNSjQPxx7g2iHpFlFijmzLHDaIXA5mDWMZRBMVBxIDZL+J3SLczQy5RhblKcs6ZZJx50kOCIIUvEqDo8Oi4uj2O5iGjor6oaLL1goy9FonxzEvRZRfpt0D4GiwnYIvxg0U1PJ1SMwfuDqzdCqPDZP0JQwuV4ylCNXCIcy5eizZetDI56iF7EBnqbXxB8DCIBTkg4goeyWht0LrCMsGmXRMoeAQ0IJGx9Q4j9wbckSM4JTahbIY1hagGOGLLly4z8yF+PLIsRwlMxZSFYaaI7lxV6x9/3Q9P2S0wtNCUgWgTrQSf+WLoX6YIy2fU/wCfEf4oir/XLMVS9X30G+pZ7iA3r+Uma12s3bEQ3fmdj7nS+5Y/+0xsF7zGMVaNOJBUNzuLTeKiyy/JH1k8BLzEPfPjzKL6EXJdXE3YtJPeUlH+4n/DnAfqNH/hMZf0QDpMp0/qdJ/Er2+iNGfqhXOMwn/mEL75fa4uqoKYse/v7J/oYDNsodBZtzlewg8RtMukPXphcAGlRGVDASptKoO5tPBWDQaLEeTuDrVLb8KhHMaICVU5dWO0vbNkNFRc/MaLqXpm4d9b0JeiwGI5jjDLQUvW/wCFiIplIyj6VHkaKlACL0B8JnXURGJ1o8DTvsMG0IzVS6NlFisnsTDvl7ujWE1yUZUCWs8EzHvuIJUveHJne0wnvFPErhHbS3gxcyJs5csp9JfwIFuYrdglLbqalTBc6v1CqHFbirk2oG62yrf98SbfkZZgP3HHGa2wTJthVtnWh6CLgBTYH6J1p1J0oFOIReASiIQE2UagSok2z1KJjR182H6EolaKBAVKc0EwiuB0WpIxEeLrReiTc+SHDStatOV8BAX1OhYw2yfv6mB6YCDPRyCbTVm35SChAiAywkbsWrISjbo6OSTZqwSwYOlDmdtFIrMc5Zswlxg/ChoJLiVDOlE9zHhQ67AlJ7+ongX8S/aTQKXKADC/sT3JOCFANL1tg+FgvRLphl8s3xcL/sGp/BWrBIbRz9/U3XHRQMEo0Sb2iolEolQkKlRCNaRvAypSUFMwf0xADnoBUJIRRKlQn4ssRdiZAXxhUSJEQgXNwIEaCKqGvlT9Pq7x2mIgeCAbIDGA3aMTGn5/7ly9NkeHRGJUoJtuy5o2INJHtm7AjKz7w4kYb7DkmSIjKUN0qWQ2lV4OWDwBE7ft8Rzag562y9WPH4Q4aoMrUqNG6ma14MV/ChLliN2XG9sT8QXU35kNGGT7cJUIO4QwSJDBZFCOHg6R5IGxp9MY2sbl2toq+M2aVGDcCM9zYzIvcrGl6CYHMeNGVQ5MYg2EqUH0jJWg9aClDmWmxBtzpaFK6BbuoAZLg59NhxJ1kAepiGhpXiRZcIr53haXL1P42FR2Eqn2Z1zBwB+rhNiIT4bGK/z8GPXYkY7oDGMTeO8tWbI/vmVcuNPUdfBuWPtLgflFiEiPUwJknbwQlDuUlSwJg1ZXDRemKpWUMog2aA3KbwJSuJiUfFgwdOkCFXVUBuImyCe80D8y0zDYw2Jv/EVr5mdRKFLkvmZMsayqkYx035/Um2W4tEaq4QzFyqVgW5wIKvzEr6IA0F9QztkoixE66ir4MtDcxRbqhRCt2KGY/tAV+7Q0uMsipbERZSocPxYLAx7iHoBxuwBq6HfXRo7aFTq6bRAdyLlEOi9aIMZSwvmRaikFFiDQSpfZcFbTYj1bnDE4pcgMTrxPNYQsiMjlg+yme0OKEnpGGhHqJfvN28E2VhzIc7AfUA9Q0yHAQL1KcSiUQ8hj4mt6iXL0VhCVdW2PQfysukn4o3H3xK1uEQ7igJZIofcz1KmyLP50XFzeSqolwAMkbPsEb1aytoVRdTF3oIqhGeE2qGIzdwTJ0t79x2irLJilVmPHwm0kzMwwqt5QmMgkBjYIClgbOI8u9HRj1Fu9Ag+6rCrTLOyKrdYmFvL1HW9gpA2vEORVSTZHX5fBn7aAmZPUsVStDzAfrFB3HLyMTGfrToQZXk5xiVBTOUy9O8ypUjSoxUdyKqlND3Xpgp4YRuQUfb4MPpJ+o4bU9y2JcMIbZCa7zIbcwkVLjEOhh6AXmxAmDspLfBcaVmFF6kAKly4MpQUQgHRgyt2CLESyN2VlMEhABhc7yPFk3SXLjwQxsjYBGDb9xuK/cB7JmoiujQqekpwys2cvjBAZ6QJ7EXRtZ79LssNxJ0aID1DTQ4UDxANFSpUqV4W6ErwNVi6XHwPC4+KwZxCI68FH4m1MoPK4eTKUTR6Yb2GIJPbpHtFn6TXXLm5pjGnwsEHzYTZE5EJt63B7XMowOhLSo4Z6VgP7GItGdtmYzTAiSreoh5fBMKA30lB8CbzFkzPG/GQpHJZ2cJE2LOhDrq69Im8lBN5KsX2hqIKGGzQANAzk/LMUckDIXVM2TEfnMHgvuwq1HE+2CkaivFStxa+6Uw0CkRyEHQISNgIpFixN/wBSNSyUJSKxi6v3O8jwJ1Yg0/ZLbHaFJMpR6TqSm5U9vqZRUgEemfpDB/4iBK+kCXU6j2Yx9IJbJxLMGC/DKkBrFTNUA6iyDmwFTJF94x9AlZEErAaW2YMib1CdODmYejLqpX7jRuUgGuErgsNkfTLvDOCnRQpLSAiwnejLd7k5YBIMWXeic/2RlBNqg3M6mHHKYC2M606060obErAyjydCvC5crxP4b8a0fK5cuXBI6suLAuK2M5vMe5crbCxDiV/APi6CIuylfpMkbhSH1NEZ8udiPRaNRdlQ3RNuIwJS5JbkyAbWqKgY2RH1DD23AKskN6QwkCAYKud3iuJKDPKo9BgMAhEVISGzIegjyXtLAG8xVhKhDcU3GdcaMbDNYSPRGCjsJiAlW6Oc2I4R5WfqYMaUkOycMCJS8Steym4FDIuIYgyx2kF4oEpKIqbCVMr+5PbULrVcbYHv0KKtryxLWJ9sU5hxuiBmn1hw5X6zDtlHrOrOnOvDgTrTrleIqqtW7nVOqIlJSUQEojMpUolEolErStK1rwrWvK/4L0qJoENL8qgakr+GoeV61K1uXKS5ZKRr4qste8KFYZUoPxNEzqDaMHzPJblSiUiOJRK8SnE6IcEdA6p0p1p0p0zpTHsnSiPSdSJ3gwiCDrTpTrnQhB0I8adCcBKFR1oB6w4kzXS+Z1pS2wGKQ48606kq9IH6QL1K8SnE6oBA0VK0rwTWv5a1qYl4/ivV/lv+F8XQi/xGh/8AhP4MaCkSjJMvGbS8GM62aLGCBByoVQdrRasWyYCKzQH+A8a/idHQ8q0ZUrxrVImgKPMfEjpWt6Pjf/4SV4Vq/wA9TPk+V6Op4LpfifwBK1Zf8DpcuYlICIiIyywtGSojK0GsKIpLJcvUsRdRSS4nvg/VX4DgmGZiWBBBDOp4kPB3jpxq+L4GhHV0TQMeBq6MP4TwI+Bt4Ef47z/CR8TR0f4HVhHR8F0dF0HQ0PJ/hOhPfi6kIQ09eSsVLYroxYxlSiUSiUlEqiEfA0dBUMqKD1GO0T6A7E3RMRqxKlxuNH//2Q==;" vertex="1" parent="1">
                    <mxGeometry width="1600" height="580" as="geometry"/>
                </mxCell>
            </root>
        </mxGraphModel>
    </diagram>
</mxfile>